<?xml version="1.0" encoding="utf-8"?>
<!-- Generator: Adobe Illustrator 25.2.3, SVG Export Plug-In . SVG Version: 6.00 Build 0)  -->
<svg version="1.1" id="Layer_1" xmlns="http://www.w3.org/2000/svg" xmlns:xlink="http://www.w3.org/1999/xlink" x="0px" y="0px"
	 viewBox="0 0 221.55 184.16" style="enable-background:new 0 0 221.55 184.16;" xml:space="preserve">
<style type="text/css">
	.st0{fill:#FFFFFF;}
</style>
<path class="st0" d="M209.67,142.63c0,0-0.2,0.3-0.59,0.85c-0.38,0.55-0.99,1.35-1.76,2.35c-1.55,2-3.91,4.73-7,7.77
	c-1.54,1.52-3.26,3.12-5.15,4.73c-0.93,0.81-1.93,1.65-3.04,2.41c-1.08,0.76-2.19,1.46-3.28,2.2c-2.2,1.46-4.36,3.08-6.39,4.97
	c-0.51,0.46-0.99,0.94-1.5,1.45c-0.47,0.51-0.94,1-1.38,1.54c-0.88,1.06-1.68,2.21-2.2,3.42c-0.23,0.6-0.39,1.24-0.34,1.76
	c0.05,0.53,0.3,0.78,0.76,0.9c0.48,0.1,1.09-0.02,1.66-0.25c0.58-0.21,1.12-0.56,1.64-0.95c1.02-0.78,1.88-1.77,2.65-2.78
	c0.77-1.01,1.44-2.07,2.09-3.12c1.37-2.26,2.45-4.44,3.34-6.64c0.46-1.14,0.9-2.24,1.34-3.31c0.47-1.13,0.87-2.09,1.23-3.02
	c1.44-3.84,2.3-7.17,2.64-9.42c0.08-0.56,0.14-1.06,0.16-1.48c0.08-0.44-0.05-0.76,0.12-1.07c0.15-0.29,0.47-0.54,0.79-0.75
	c0.29-0.2,0.54-0.33,0.54-0.33l0.02-0.01c0.27-0.14,0.56-0.18,0.83-0.13c0,0,0.27,0.05,0.6,0.19c0.36,0.14,0.76,0.4,0.96,0.77
	c0.11,0.18,0.12,0.4,0.13,0.64c0.02,0.24,0.03,0.49,0.03,0.76c0.02,0.55-0.01,1.16-0.05,1.85c-0.19,2.73-0.94,6.42-2.6,10.6
	c-0.41,1.08-0.95,2.15-1.41,3.14c-0.49,1.05-0.99,2.14-1.5,3.26c-1.08,2.3-2.49,4.69-4.05,6.93c-1.62,2.4-3.93,4.51-6.77,5.78
	c-0.7,0.34-1.45,0.58-2.23,0.76c-0.78,0.16-1.63,0.26-2.54,0c-0.45-0.14-0.93-0.39-1.24-0.82c-0.19-0.19-0.27-0.44-0.38-0.66
	c-0.05-0.23-0.14-0.47-0.14-0.7c-0.07-0.91,0.18-1.7,0.46-2.42c0.59-1.43,1.44-2.66,2.32-3.83c0.43-0.59,0.92-1.15,1.38-1.71
	c0.46-0.52,0.94-1.08,1.44-1.6c1.96-2.09,4.1-3.99,6.3-5.6c1.1-0.81,2.19-1.56,3.22-2.28c1.02-0.71,1.95-1.49,2.9-2.27
	c1.87-1.56,3.62-3.07,5.2-4.48c1.58-1.42,3.01-2.75,4.26-3.95c1.25-1.2,2.31-2.27,3.19-3.15c0.87-0.89,1.52-1.61,1.99-2.09
	c0.46-0.49,0.7-0.76,0.7-0.76c0.16-0.18,0.44-0.19,0.61-0.02C209.77,142.21,209.79,142.45,209.67,142.63z"/>
<path class="st0" d="M198.54,145.47c0.12-2.54-0.54-5.23-1.62-5.23c-2.74,0-11.52,12.06-16.13,14.4c-0.36,0.18-0.72,0.27-1.08,0.27
	c-0.65,0-1.01-0.45-1.01-1.26c0-0.54,0.14-1.17,0.5-2.07c3.46-8.55,12.1-18.27,16.56-18.27c1.22,0,2.09,0.81,2.45,2.61
	c0.07,0.45,0.36,0.63,0.72,0.63s0.79-0.27,0.79-0.63c-0.14-2.88-1.08-6.21-2.81-7.56c-0.29-0.27-0.72-0.36-1.22-0.36
	c-4.68,0-16.28,11.52-19.52,20.53c-0.5,1.35-0.72,2.61-0.72,3.6c0,2.97,1.73,4.77,3.17,5.94c0.29,0.27,0.65,0.36,1.08,0.36
	c3.03,0,8.28-7.56,13.4-13.23c0.22-0.27,0.43-0.36,0.58-0.36c0.43,0,0.94,1.5,0.3,4.33"/>
<path class="st0" d="M178.89,146.91c0-0.27-0.14-0.36-0.29-0.36c-0.36,0-0.94,0.36-1.58,1.26c-5.04,6.39-7.78,8.82-8.86,8.82
	c-0.43,0-0.58-0.36-0.58-0.99c0-1.35,0.58-3.24,2.3-7.2c2.95-6.66,4.39-9.54,4.39-12.6c0-0.72-0.07-1.35-0.36-1.89
	c-1.08-1.98-1.94-2.88-3.53-2.88c-3.02,0-7.63,3.78-14.98,12.87c-0.5,0.63-0.86,0.9-1.01,0.9c-0.07,0-0.07,0-0.07-0.18
	s0.14-0.81,0.65-1.71c3.31-6.12,5.55-10.53,5.55-13.68c0-1.8-0.79-3.24-2.59-4.32c-0.22-0.09-0.36,0.36-0.36,0.72
	c0,0.27,0.07,0.45,0.29,0.54c0.14,0.09,0.22,0.27,0.22,0.45c0,3.33-12.31,21.61-12.31,29.8c0,1.35,0.36,2.43,1.15,3.15
	c0.36,0.36,0.86-0.45,1.01-0.9c2.23-7.38,17.93-25.03,21.68-25.03c0.5,0,0.79,0.36,0.79,1.08c0,1.26-0.94,3.78-3.02,7.92
	c-1.94,3.78-4.54,8.73-4.54,12.42c0,1.71,0.5,3.06,1.87,4.05c0.5,0.36,1.08,0.54,1.73,0.54c3.1,0,7.13-4.5,11.6-10.89
	C178.67,147.9,178.89,147.27,178.89,146.91"/>
<path class="st0" d="M149.94,145.2c0-0.27-0.07-0.45-0.29-0.45s-0.5,0.18-0.79,0.54c-4.68,5.67-10.44,12.15-12.39,12.15
	c-0.36,0-0.58-0.27-0.58-0.9c0-0.27,0.07-0.72,0.14-1.17c1.37-6.57,10.51-18,10.51-22.33c0-1.98-2.09-3.33-2.81-3.33
	c-0.22,0-0.29,0-0.36,0.18c-0.22,0.36-0.29,0.63-0.29,0.81c0,0.27,0.22,0.36,0.22,0.63c0,0.09,0,0.36-0.5,1.26
	c-4.9,8.82-9.43,18.09-9.43,23.41c0,1.44,0.36,2.52,1.08,3.33c0.36,0.36,0.79,0.54,1.3,0.54c3.46,0,9.8-8.1,13.54-13.14
	C149.79,146.1,149.94,145.56,149.94,145.2"/>
<path class="st0" d="M138.8,144.3c0-0.36-0.36-0.72-0.72-0.72c-0.14,0-0.29,0-0.43,0.18c-6.41,7.38-15.99,13.86-20.09,13.86
	c-1.08,0-2.02-0.45-2.02-2.07c0-4.86,4.1-13.14,11.74-20.62c0.58-0.63,1.15-0.9,1.58-0.9c0.65,0,1.08,0.63,1.08,1.71
	c0,0.54-0.14,1.08-0.29,1.8c-0.22,1.26,0.29,1.62,0.72,1.62c0.22,0,0.36-0.09,0.58-0.27c1.22-1.17,1.8-2.43,1.8-3.69
	c0-1.89-1.15-3.78-2.09-5.4c-0.65-1.17-1.3-1.53-2.09-1.53c-0.86,0-1.87,0.45-3.17,1.71c-6.84,6.66-13.11,16.38-13.11,23.5
	c0,1.89,0.43,3.51,1.37,4.95c1.01,1.62,2.52,2.16,4.11,2.16c7.06,0,17.64-11.52,20.81-15.75C138.73,144.66,138.8,144.48,138.8,144.3
	"/>
<path class="st0" d="M115.24,146.91c0-0.27-0.14-0.36-0.29-0.36c-0.36,0-0.94,0.36-1.58,1.26c-5.04,6.39-7.78,8.82-8.86,8.82
	c-0.43,0-0.58-0.36-0.58-0.99c0-1.35,0.58-3.24,2.31-7.2c2.95-6.66,4.39-9.54,4.39-12.6c0-0.72-0.07-1.35-0.36-1.89
	c-1.08-1.98-1.94-2.88-3.53-2.88c-3.02,0-7.63,3.78-14.98,12.87c-0.5,0.63-0.86,0.9-1.01,0.9c-0.07,0-0.07,0-0.07-0.18
	s0.14-0.81,0.65-1.71c3.31-6.12,5.55-10.53,5.55-13.68c0-1.8-0.79-3.24-2.59-4.32c-0.22-0.09-0.36,0.36-0.36,0.72
	c0,0.27,0.07,0.45,0.29,0.54c0.14,0.09,0.22,0.27,0.22,0.45c0,3.33-12.31,21.61-12.31,29.8c0,1.35,0.36,2.43,1.15,3.15
	c0.36,0.36,0.86-0.45,1.01-0.9c2.23-7.38,17.93-25.03,21.68-25.03c0.5,0,0.79,0.36,0.79,1.08c0,1.26-0.94,3.78-3.02,7.92
	c-1.94,3.78-4.54,8.73-4.54,12.42c0,1.71,0.5,3.06,1.87,4.05c0.5,0.36,1.08,0.54,1.73,0.54c3.1,0,7.13-4.5,11.59-10.89
	C115.02,147.9,115.24,147.27,115.24,146.91"/>
<path class="st0" d="M87.67,143.85c0-0.36-0.14-0.45-0.36-0.45c-0.22,0-0.58,0.18-1.01,0.72c-5.98,8.1-10.3,12.33-11.74,12.33
	c-0.43,0-0.65-0.18-0.5-1.26c0.58-3.51,2.66-8.46,4.54-12.06c0.29-0.63,0.43-1.17,0.43-1.98c0-1.53-0.72-2.88-1.87-2.88
	c-0.29,0-0.58,0.09-0.94,0.27c-2.31,1.17-10.59,11.88-14.19,15.48c-1.44,1.44-2.23,2.07-2.74,2.07c-0.29,0-0.43-0.27-0.43-0.72
	c0-0.45,0.07-1.08,0.36-1.89c4.11-11.88,13.61-20.26,17.5-20.26c0.65,0,1.15,0.36,1.44,0.9s0.65,0.99,0.94,0.99
	c0.36,0,0.94-0.36,0.65-1.62c-0.86-3.96-2.45-5.22-4.18-5.22c-0.79,0-1.66,0.27-2.52,0.72c-6.12,3.51-13.97,13.59-18,23.86
	c-0.22,0.54-0.36,1.17-0.36,1.8c0,2.52,1.87,5.22,3.89,5.22c0.65,0,1.3-0.27,1.94-0.81c4.25-3.51,9.58-11.88,12.53-15.21
	c0.14-0.09,0.22-0.18,0.29-0.18c0.14,0,0.29,0.18,0.29,0.45c0,0.18-0.07,0.36-0.14,0.54c-1.8,4.05-2.74,7.56-2.74,10.17
	c0,2.61,0.94,4.23,2.67,4.23c0.58,0,1.37-0.18,2.16-0.63c2.81-1.44,10.08-10.26,11.95-13.95C87.67,144.21,87.67,144.03,87.67,143.85
	"/>
<path class="st0" d="M34.51,119.09c0-2.52-0.86-4.5-3.03-5.76c-0.43-0.27-0.86,0.63-0.86,1.17c0,0.18,0.07,0.36,0.29,0.54
	c0.22,0.18,0.29,0.45,0.29,0.9c0,5.58-17,31.24-17,43.48c0,0.63,0,1.26,0.14,1.89c0.14,0.63,0.29,0.99,0.43,0.99
	s0.36-0.27,0.43-0.72C16.94,150.96,34.51,130.16,34.51,119.09"/>
<path class="st0" d="M62.67,121.7c0-9.45-4.61-18.72-19.01-18.72c-4.75,0-11.02,1.17-18.87,3.96c-1.58,0.54-2.31,0.81-2.67,0.81
	c-0.14,0-0.22-0.09-0.22-0.18c0-0.36,0.94-1.08,0.94-1.62c0-0.27-0.29-0.45-1.94-0.45c-0.58,0-2.09,0.81-2.09,2.25
	c0,0.54,0.14,1.17,0.65,1.8c0.86,1.17,2.3,1.62,4.25,1.62c5.69,0,15.2-3.78,23.33-3.78c3.46,0,6.7,0.72,9.22,2.7
	c2.23,1.8,3.39,4.32,3.39,7.38c0,10.26-12.17,26.47-36.44,40.78c-0.29,0.18-0.5,0.18-0.79,0.18c-1.08,0-1.8-0.99-2.23-0.99
	c-0.14,0-0.43,0.54-0.43,0.81c0,2.16,2.02,3.15,4.61,3.15C35.59,161.4,62.67,141.87,62.67,121.7"/>
<path class="st0" d="M130.59,101.1c0,0-2.36,3.48-2.63,3.97c-0.27,0.49-0.88,1.35-1.85,2.76c-1.22,1.72-2.07,2.84-3.89,4.72
	c-0.9,0.95-1.87,1.84-2.83,2.6c-0.49,0.38-0.96,0.74-1.43,1.05c-0.47,0.31-0.92,0.6-1.34,0.84c-1.7,0.97-2.89,1.41-2.89,1.41
	l-0.01,0c-0.35,0.13-0.73-0.05-0.86-0.4c-0.09-0.25-0.11-0.55,0.15-0.71c5.23-3.03,10.69-9.23,14.24-13.95
	c2.02-2.68,0.68-0.26,0.93,0.01C128.38,103.62,130.73,100.85,130.59,101.1z"/>
<path class="st0" d="M190.29,103.8c0-0.25-0.13-0.42-0.33-0.42c-0.2,0-0.4,0.08-0.66,0.33c-3.37,4.02-13.49,12.55-17.59,12.55
	c-1.06,0-1.98-0.59-1.65-2.85c1.26-8.45,6.95-15.48,11.71-18.91c0.79-0.59,1.45-0.84,1.92-0.84c0.66,0,0.99,0.5,0.99,1.26
	c0,0.84-0.46,2.09-1.46,3.43c-0.99,1.34-4.03,4.18-6.55,6.19c-0.46,0.33-0.66,0.84-0.66,1.17c0,0.25,0.13,0.59,0.6,0.42
	c4.03-1.26,8.93-4.85,9.86-8.79c0.07-0.42,0.13-0.84,0.13-1.34c0-3.1-1.98-7.36-4.3-7.36c-3.24,0-15.54,14.31-15.54,23.43
	c0,0.67,0.07,1.26,0.2,1.84c0.79,3.6,2.58,5.02,4.9,5.02c5.69,0,14.09-8.29,18.19-14.39C190.23,104.3,190.29,104.05,190.29,103.8"/>
<path class="st0" d="M170.27,103.8c0-0.25-0.13-0.42-0.33-0.42c-0.2,0-0.4,0.08-0.66,0.33c-3.37,4.02-13.49,12.55-17.59,12.55
	c-1.06,0-1.98-0.59-1.65-2.85c1.26-8.45,6.95-15.48,11.71-18.91c0.79-0.59,1.45-0.84,1.92-0.84c0.66,0,0.99,0.5,0.99,1.26
	c0,0.84-0.46,2.09-1.46,3.43c-0.99,1.34-4.03,4.18-6.55,6.19c-0.46,0.33-0.66,0.84-0.66,1.17c0,0.25,0.13,0.59,0.6,0.42
	c4.03-1.26,8.93-4.85,9.86-8.79c0.07-0.42,0.13-0.84,0.13-1.34c0-3.1-1.98-7.36-4.3-7.36c-3.24,0-15.54,14.31-15.54,23.43
	c0,0.67,0.07,1.26,0.2,1.84c0.79,3.6,2.58,5.02,4.9,5.02c5.69,0,14.09-8.29,18.19-14.39C170.2,104.3,170.27,104.05,170.27,103.8"/>
<path class="st0" d="M151.1,101.87c0-0.33-0.13-0.59-0.4-0.59c-0.2,0-0.53,0.17-0.86,0.67c-3.44,4.6-6.61,8.54-9.06,10.88
	c-0.53,0.5-0.99,0.75-1.26,0.75c-0.2,0-0.33-0.17-0.33-0.5c0-0.42,0.2-1.17,0.53-2.09c1.65-4.44,4.43-10.21,4.43-14.23
	c0-0.75-0.13-1.51-0.33-2.09c-0.73-2.01-1.79-2.68-3.24-2.68c-0.93,0-1.92,0.25-3.18,0.67c-0.4,0.17-0.79,0-0.79-0.17
	c0-0.17,0.13-0.42,0.26-0.67c0.73-1.17,1.12-2.26,1.12-3.26c0-1.34-0.6-2.43-1.72-3.43c-0.27-0.25-0.66-0.42-1.06-0.42
	c-0.33,0-0.66,0.08-0.93,0.42c-1.39,1.76-2.25,3.6-2.25,5.44c0,1.26,0.33,2.43,0.99,3.6c0,0.42-4.89,8.29-7.41,11.38
	c-0.26,0.33-0.46,0.75-0.46,1c0,0.25,0.13,0.42,0.4,0.42c0.26,0,0.79-0.25,1.39-1c2.78-3.35,5.95-8.37,7.34-10.38
	c0.33-0.42,0.99-0.33,1.39-0.42c1.52-0.33,3.11-1.34,4.5-1.34c0.93,0,1.32,0.59,1.32,1.51c0,3.18-4.17,10.46-5.82,14.23
	c-0.73,1.67-0.99,3.01-0.99,4.1c0,1.84,0.79,3.01,1.98,4.1c0.4,0.33,0.79,0.5,1.12,0.5c0.79,0,1.32-0.5,2.84-2.18
	c3.18-3.68,6.81-8.62,10.19-13.39C151.04,102.46,151.1,102.12,151.1,101.87"/>
<path class="st0" d="M126.51,96.52c0-0.23-0.06-0.46-0.12-0.76c-0.61-2.28-2.8-3.04-5.41-3.04c-4.56,0-10.52,2.28-11.92,2.28
	c-0.18,0-0.3,0-0.3-0.15s0.12-0.38,0.3-0.76c1.95-4.1,4.86-9.5,4.86-13.3c0-0.84-0.18-1.6-0.49-2.28c-0.12-0.3-0.24-0.38-0.37-0.38
	c-0.43,0-0.49,0.68-0.49,0.99c0,1.37-5.41,11.7-8.39,16.19c-0.3,0.46-0.67,1.06-0.97,1.22c-2.43,0.99-4.8,0.46-4.8,0.84
	c0,0.91,2.13,1.44,3.16,1.75c0.18,0.08,0.06,0.3-0.06,0.61c-3.28,6.31-4.86,11.17-4.86,14.29c0,1.9,0.61,3.19,1.7,3.8
	c0.79,0.46,1.28,0.61,1.52,0.61c0.3,0,0.37-0.15,0.37-0.46c0-0.23-0.12-0.68-0.12-1.22c0-2.36,3.53-11.7,6.08-16.57
	c0.24-0.53,0.55-1.14,0.85-1.22c4.07-1.14,12.4-2.58,17.21-2.89c1.76-0.08,1.28,0.46,1.64,0.99c0.06,0.08,0.18,0.15,0.24,0.15
	C126.45,97.2,126.51,96.98,126.51,96.52"/>
<path class="st0" d="M168.48,74.34c0-0.77-0.36-1.63-1.2-2.5c-1.55-1.63-4.93-1.82-9.56-2.3C142,67.89,100.79,83.94,95.87,80.91
	c-1.83-1.13-1.97-3.03-1.97-3.79c0-0.58,0.96-1.54,1.91-2.5c-0.72,0-3.53,4.02-3.77,6.61c-0.24,2.59-1.55,3.48,2.39,3.48
	c3.71,0,8.61-0.77,13.62-1.73c7.05-1.34,28.5-9.93,40.46-9.93c5.5,0,9.44,2.17,9.44,4.09c0,0.67-0.72,3.91-2.03,5.06
	c-0.48,0.48-1.67,1.63-1.67,2.11c0,0.1,0.12,0.19,0.24,0.19c0.12,0,0.48-0.1,0.84-0.29c6.21-3.27,7.29-3.75,9.92-5.67
	C167.16,77.22,168.48,75.87,168.48,74.34"/>
<g>
	<path class="st0" d="M83.31,76.69c-1.11,0.06-2.53,0.06-3.78,0.06c-1.33,0-2.49,0-3.16-0.06c-0.13,0-0.22-0.06-0.22-0.17
		c0-0.17,0.13-0.44,0.36-0.83c2.27-3.61,3.29-5.78,3.29-7.39c0-1.17-0.62-2.11-1.51-2.94c-0.09-0.06-0.13-0.11-0.22-0.11
		c-0.22,0-0.4,0.28-0.4,0.44c0,0.06,0.09,0.06,0.18,0.17c0.04,0.06,0.09,0.22,0.09,0.39c0,1.56-2.84,6.55-5.02,9.94
		c-0.22,0.33-0.89,0.56-2.13,0.56c-0.31,0-0.67-0.06-1.02-0.06c-0.27,0-0.75,0-0.75,0.22c0,0.72,0.62,0.78,1.56,1
		c0.8,0.17,1.14,0.57,0.93,0.94c-3.26,5.79-8.3,19.31-8.3,23.42c0,2.89,1.02,4.11,2.31,4.11c0.67,0,1.38-0.33,2.09-0.89
		c4.71-3.78,6.43-10.07,7.43-13.81c1.17-4.36,2.29-11.48,0.07-12.66c-0.09-0.06-0.13-0.11-0.13-0.22c0-0.28,0.27-0.72,0.58-0.72
		c2.18-0.17,6.67-0.33,7.69-0.67c0.31-0.11,0.4-0.22,0.4-0.39S83.53,76.69,83.31,76.69z M74.01,90.69c-1,4-4,10-5.73,12.02
		c-0.52,0.61-1.28,1.09-2.16,1.09c-0.62,0-0.92-0.94-0.92-2.06c0-3.89,7.6-19.51,8.6-21.33c0.19-0.35,0.31-0.5,0.49-0.67
		C75.93,80.85,75.34,85.36,74.01,90.69z"/>
	<path class="st0" d="M66.03,81.13c-0.53-1.17-1.42-2.22-2.4-2.83c0.36-0.5,0.58-0.78,0.58-1.17s-0.31-0.83-0.98-1.72
		c-0.22-0.28-0.4-0.39-0.62-0.39s-0.44,0.11-0.8,0.44c-3.87,3.44-9.38,10.61-9.38,15.66c0,1.5,0.49,2.78,1.6,3.72
		c0.44,0.39,1.02,0.56,1.64,0.56c4,0,10.84-6.89,10.84-12.11C66.52,82.52,66.34,81.8,66.03,81.13z M58.08,93.07
		c-0.84,0.44-1.6,0.72-2.13,0.72c-0.76,0-1.24-0.44-1.38-1.39c-0.44-3.11,4.62-10.16,7.95-12.94c1.38,0.28,1.96,0.89,2.27,2.06
		c0.13,0.44,0.18,0.94,0.18,1.44C64.96,86.63,61.85,91.02,58.08,93.07z"/>
</g>
<path class="st0" d="M204.64,49.59c0-0.24-0.19-0.49-0.45-0.49c-0.19,0-0.39,0.16-0.58,0.4c-2.01,2.59-4.6,5.67-6.41,7.2
	c-0.06,0.08-0.19,0.16-0.26,0.16c-0.06,0-0.13-0.08-0.13-0.16c0.19-0.57,0.26-1.13,0.26-1.62c0-2.43-1.68-4.21-3.56-6.56
	c-0.58-0.73-0.84-1.46-0.84-2.27c0-1.62,1.36-3.32,4.14-4.69c2.27-1.13,2.85-1.86,2.85-2.43c0-0.49-0.26-0.81-0.45-1.3
	c-0.58-1.38-1.17-1.78-1.81-1.78c-0.26,0-0.52,0-0.84,0.16c-4.66,1.86-7.06,4.61-7.06,7.85c0,1.94,0.97,4.05,2.85,6.15
	c1.17,1.3,1.75,2.59,1.75,3.89c0,2.59-2.53,5.26-7.45,8.34c-1.36,0.81-1.88,1.54-1.88,2.19c0,0.4,0.26,0.81,0.65,1.21
	c0.32,0.32,1.1,0.57,1.88,0.57c2.59,0,6.41-2.27,8.29-5.26c0.26-0.4,0.58-1.13,0.84-1.54c2.98-2.67,5.96-6.56,7.9-9.23
	C204.52,50.08,204.64,49.83,204.64,49.59"/>
<path class="st0" d="M191.96,48.94c0-0.32-0.13-0.57-0.39-0.57c-0.19,0-0.52,0.16-0.84,0.65c-3.37,4.45-6.47,8.26-8.87,10.52
	c-0.52,0.49-0.97,0.73-1.23,0.73c-0.19,0-0.32-0.16-0.32-0.49c0-0.4,0.19-1.13,0.52-2.02c1.62-4.29,4.34-9.87,4.34-13.76
	c0-0.73-0.13-1.46-0.32-2.02c-0.71-1.94-1.75-2.59-3.17-2.59c-0.91,0-1.88,0.24-3.11,0.65c-0.39,0.16-0.78,0-0.78-0.16
	c0-0.16,0.13-0.4,0.26-0.65c0.71-1.13,1.1-2.19,1.1-3.16c0-1.3-0.58-2.35-1.68-3.32c-0.26-0.24-0.65-0.4-1.04-0.4
	c-0.32,0-0.65,0.08-0.91,0.4c-1.36,1.7-2.2,3.48-2.2,5.26c0,1.21,0.32,2.35,0.97,3.48c0,0.4-4.79,8.01-7.25,11.01
	c-0.26,0.32-0.45,0.73-0.45,0.97c0,0.24,0.13,0.4,0.39,0.4s0.78-0.24,1.36-0.97c2.72-3.24,5.83-8.09,7.19-10.04
	c0.32-0.4,0.97-0.32,1.36-0.4c1.49-0.32,3.04-1.3,4.4-1.3c0.91,0,1.29,0.57,1.29,1.46c0,3.08-4.08,10.12-5.7,13.76
	c-0.71,1.62-0.97,2.91-0.97,3.97c0,1.78,0.78,2.91,1.94,3.97c0.39,0.32,0.78,0.49,1.1,0.49c0.78,0,1.29-0.49,2.78-2.1
	c3.11-3.56,6.67-8.34,9.97-12.95C191.9,49.51,191.96,49.18,191.96,48.94"/>
<path class="st0" d="M169.93,49.99c0-0.32-0.13-0.4-0.32-0.4c-0.19,0-0.52,0.16-0.91,0.65c-5.37,7.28-9.26,11.09-10.55,11.09
	c-0.39,0-0.58-0.16-0.45-1.13c0.52-3.16,2.4-7.61,4.08-10.85c0.26-0.57,0.39-1.05,0.39-1.78c0-1.38-0.65-2.59-1.68-2.59
	c-0.26,0-0.52,0.08-0.84,0.24c-2.07,1.05-9.52,10.68-12.76,13.92c-1.3,1.3-2.01,1.86-2.46,1.86c-0.26,0-0.39-0.24-0.39-0.65
	c0-0.4,0.06-0.97,0.32-1.7c3.69-10.68,12.24-18.21,15.73-18.21c0.58,0,1.04,0.32,1.29,0.81c0.26,0.49,0.58,0.89,0.84,0.89
	c0.32,0,0.84-0.32,0.58-1.46c-0.78-3.56-2.2-4.69-3.76-4.69c-0.71,0-1.49,0.24-2.27,0.65c-5.5,3.16-12.56,12.22-16.19,21.45
	c-0.19,0.49-0.32,1.05-0.32,1.62c0,2.27,1.68,4.69,3.5,4.69c0.58,0,1.17-0.24,1.75-0.73c3.82-3.16,8.61-10.68,11.27-13.68
	c0.13-0.08,0.19-0.16,0.26-0.16c0.13,0,0.26,0.16,0.26,0.4c0,0.16-0.06,0.32-0.13,0.49c-1.62,3.64-2.46,6.8-2.46,9.15
	c0,2.35,0.84,3.8,2.4,3.8c0.52,0,1.23-0.16,1.94-0.57c2.53-1.29,9.07-9.23,10.75-12.55C169.93,50.32,169.93,50.16,169.93,49.99"/>
<path class="st0" d="M144.53,50.8c0-0.24-0.13-0.4-0.32-0.4c-0.19,0-0.39,0.08-0.65,0.32c-3.3,3.89-13.21,12.14-17.22,12.14
	c-1.04,0-1.94-0.57-1.62-2.75c1.23-8.17,6.8-14.97,11.46-18.29c0.78-0.57,1.42-0.81,1.88-0.81c0.65,0,0.97,0.49,0.97,1.21
	c0,0.81-0.45,2.02-1.42,3.32c-0.97,1.3-3.95,4.05-6.41,5.99c-0.45,0.32-0.65,0.81-0.65,1.13c0,0.24,0.13,0.57,0.58,0.4
	c3.95-1.21,8.74-4.69,9.65-8.5c0.06-0.4,0.13-0.81,0.13-1.3c0-2.99-1.94-7.12-4.21-7.12c-3.17,0-15.22,13.84-15.22,22.66
	c0,0.65,0.06,1.21,0.19,1.78c0.78,3.48,2.53,4.86,4.79,4.86c5.57,0,13.79-8.01,17.81-13.92C144.46,51.29,144.53,51.05,144.53,50.8"
	/>
<path class="st0" d="M127.18,46.01c-0.13,0-0.26,0-0.45,0.16c-1.49,1.05-7.3,4.96-9.69,6.74c-0.32,0.24-0.45,0-0.45-0.24
	c0-0.16,0-0.32,0.13-0.65c3.04-7.12,4.6-13.27,4.6-17.4c0-1.86-0.26-3.32-0.91-4.37c-0.39-0.57-0.84-0.81-1.49-0.81
	c-5.63,0-20.66,21.53-29.85,28.65c-0.78,0.65-1.55,1.05-2.14,1.05c-0.52,0-0.91-0.32-0.91-1.13c0-0.89,0.45-2.35,1.55-4.61
	c6.15-12.46,18.19-25.82,18.19-33.67c0-1.13-0.26-2.1-0.78-2.99c-0.78-1.29-2.2-1.86-4.08-1.86c-4.79,0-12.24,3.64-16.58,6.15
	c-0.13,0.08-0.26,0.16-0.32,0.16c-0.13,0-0.19-0.16-0.19-0.32c0-0.24,0.19-0.57,0.19-0.81c0-0.16-0.13-0.24-0.19-0.24
	c-0.13,0-0.65,0.4-1.17,0.89c-0.39,0.4-0.58,1.05-0.58,1.7c0,1.29,0.65,2.75,2.01,2.75c2.4,0,12.43-8.5,17.09-8.17
	c1.23,0.08,1.75,0.65,1.75,1.62c0,5.83-21.04,26.06-21.04,37.55c0,0.81,0.13,1.62,0.39,2.35c0.84,2.43,2.14,5.1,4.86,5.1
	c0.39,0,0.84-0.08,1.36-0.24c6.28-2.02,20.46-22.5,27.52-29.62c0.45-0.4,0.84-0.65,1.17-0.65c0.65,0,0.91,0.89,0.91,2.27
	c0,4.21-2.53,13.19-6.86,20.07c-1.29,2.02-1.94,2.35-3.04,3.4C102.6,64,92.05,76.95,92.05,81.24c0,2.67,0.97,3.48,2.14,3.48
	c0.91,0,1.94-0.4,2.72-1.05c3.3-2.67,10.36-12.3,16.32-24.77c0.45-0.97,1.23-1.7,1.68-2.1c3.5-3.16,10.27-8.36,11.96-9.49
	c0.45-0.32,0.65-0.65,0.65-0.97C127.51,46.17,127.38,46.01,127.18,46.01z M99.39,76.43c-0.41,0.44-1.6,1.83-2.38,1.83
	c-0.64,0-0.03-1.57,0.2-2.09s6.18-10.21,12.8-16.39C107.89,63.35,99.8,76,99.39,76.43z"/>
<g>
	<path class="st0" d="M30.3,39.37C24.08,51.12,16.51,64,16.51,70.44c0,0.79-0.34,1.24-0.79,1.24c-0.23,0-0.57-0.23-0.79-0.57
		c-1.92-2.15-2.71-4.97-2.71-8.02c0-8.25,5.54-18.08,11.3-27.12c5.08-8.02,9.94-14.35,9.94-16.05c0-0.23-0.23-0.34-0.34-0.34
		c-0.45,0-1.02,0.34-1.24,0.34c-0.34,0-0.68-0.11-0.68-0.45c0-0.23,0.34-0.79,0.57-1.02c1.13-1.47,2.26-2.26,3.05-2.26
		c1.02,0,1.92,1.02,3.28,2.94c0.23,0.34,0.34,0.79,0.34,1.36C38.43,23.55,34.71,31.12,30.3,39.37z"/>
	<path class="st0" d="M76.97,16.77c-2.26,0-19.32,4.18-21.7,5.08c-0.9,0.34-1.02,0.9-1.02,1.58c0,0.34,0.11,0.79,0.11,1.24
		c0,0.34-0.11,0.79-0.34,1.13c-1.81,2.15-5.54,6.21-6.78,8.14c-0.79,1.24-1.24,2.03-1.24,2.37c0,0.23,0.11,0.45,0.9,0.23
		c3.39-1.02,6.22-1.36,8.59-1.36c6.67,0,9.6,2.94,9.6,7.57c0,3.16-1.58,7.12-4.63,11.3c-8.81,11.86-24.18,20.9-31.64,20.9
		c-2.26,0-4.29-1.13-4.29-3.73c0-0.68,0.11-1.36,0.34-2.15c0.11-0.57,0.34-0.79,0.57-0.79c0.34,0,0.68,0.34,1.02,0.68
		c0.23,0.23,0.68,0.34,1.24,0.34c6.1,0,27.91-12.88,32.32-24.75c0.45-1.13,0.57-2.03,0.57-2.82c0-2.49-1.69-3.62-4.52-3.62
		c-3.28,0-8.02,1.69-12.88,4.63c-1.24-1.58-3.84-4.18-3.84-7.8c0-0.9,0.11-1.7,0.68-2.37c3.05-3.95,6.89-8.47,8.02-9.83
		c-2.6-1.13-4.52-4.41-3.73-5.99c0.45-0.79,0.79-1.13,1.02-1.13c0.23,0,0.23,0.34,0.23,0.9c0,0.56,1.36,0.79,3.39,0.79
		c7.01,0,22.71-2.49,28.7-2.71c1.02,0,1.36,0.34,1.36,0.68C79,15.98,78.21,16.77,76.97,16.77z"/>
</g>
<g>
	<path d="M16.07,225.82c-0.11,0.09-0.25,0.11-0.37,0.11c-0.11,0-0.23-0.05-0.23-0.16c0-0.07,0.05-0.16,0.14-0.27
		c0.25-0.34,0.37-0.62,0.37-0.82c0-0.37-0.39-0.53-1.01-0.53c-2.54,0-8.91,2.61-8.91,4.15c0,0.32,0.3,0.62,1.01,0.8
		c0.18,0.05,0.46,0.07,0.82,0.07c0.41,0,0.92-0.02,1.44-0.02c1.83,0,4.08,0.21,4.49,1.97c0.05,0.21,0.07,0.41,0.07,0.6
		c0,1.86-2.04,3.85-5.77,5.31c-0.82,0.32-1.44,0.44-1.9,0.44c-0.96,0-1.26-0.5-1.35-0.71c-0.14-0.27-0.21-0.46-0.21-0.57
		c0-0.27,0.34-0.18,0.8-0.25c3.82-0.62,7.26-3.11,7.26-4.7c0-0.78-0.89-1.4-3.05-1.4c-0.41,0-0.85,0.02-1.33,0.07
		c-0.37,0.05-0.69,0.05-1.01,0.05c-1.4,0-2.29-0.34-2.57-1.03c-0.09-0.21-0.14-0.44-0.14-0.66c0-2.68,6.16-5.93,11.02-6.3
		c0.39-0.02,0.55,0.16,0.73,0.53c0.18,0.39,0.27,0.89,0.27,1.42C16.66,224.69,16.46,225.5,16.07,225.82z"/>
	<path d="M16.62,235.99c-0.18,0-0.34,0.02-0.39-0.02s-0.02-0.16,0-0.3c0.11-0.44,6.62-3.73,6.62-5.38c0-0.16-0.07-0.32-0.21-0.44
		c-0.11-0.09-0.23-0.14-0.48-0.14c-1.05,0-3.21,1.26-4.54,2.59c-0.27,0.27-0.57,0.62-0.8,0.92c-2.63,3.44-3.8,5.91-3.8,6.8
		c0,0.21,0.05,0.32,0.16,0.37c0.09,0.05,0.25,0.14,0.25,0.23c0,0.05-0.18,0.18-0.32,0.18c-0.53-0.02-0.73-0.71-0.69-1.4
		c0.21-2.68,3.48-7.1,5.2-10.19c0.16-0.3,0.32-0.6,0.21-0.82c-0.02-0.05-0.05-0.09-0.05-0.14c0-0.05,0.05-0.07,0.09-0.07
		c0.18,0,0.57,0.23,0.73,0.5c0.09,0.16,0.14,0.37,0.14,0.57c0,0.5-0.23,1.12-0.71,1.76c-0.02,0.05-0.05,0.09-0.05,0.11
		s0.02,0.05,0.05,0.05c0.05,0,0.14-0.05,0.21-0.11c1.63-1.35,3.02-1.95,3.96-1.95c0.48,0,0.87,0.16,1.05,0.48
		c0.23,0.39,0.34,0.73,0.34,1.15C23.6,233.63,17.39,235.99,16.62,235.99z"/>
	<path d="M32.58,232.3c-1.17,1.31-2.43,2.66-3.53,3.66c-0.53,0.46-0.71,0.6-0.98,0.6c-0.11,0-0.25-0.05-0.39-0.14
		c-0.41-0.3-0.69-0.62-0.69-1.12c0-0.3,0.09-0.66,0.34-1.12c0.57-1.03,2.02-3.02,2.02-3.89c0-0.25-0.14-0.41-0.46-0.41
		c-0.48,0-1.03,0.27-1.56,0.37c-0.14,0.02-0.37,0-0.48,0.11c-0.48,0.55-1.58,1.92-2.54,2.84c-0.21,0.21-0.39,0.27-0.48,0.27
		c-0.09,0-0.14-0.05-0.14-0.11c0-0.07,0.07-0.18,0.16-0.27c0.87-0.85,2.57-3,2.57-3.12c-0.23-0.32-0.34-0.64-0.34-0.98
		c0-0.5,0.3-1.01,0.78-1.49c0.09-0.09,0.21-0.11,0.32-0.11c0.14,0,0.27,0.05,0.37,0.11c0.39,0.27,0.6,0.57,0.6,0.94
		c0,0.27-0.14,0.57-0.39,0.89c-0.05,0.07-0.09,0.14-0.09,0.18c0,0.05,0.14,0.09,0.27,0.05c0.44-0.11,0.78-0.18,1.1-0.18
		c0.5,0,0.87,0.18,1.12,0.73c0.07,0.16,0.11,0.37,0.11,0.57c0,1.1-0.96,2.68-1.53,3.89c-0.11,0.25-0.18,0.46-0.18,0.57
		c0,0.09,0.05,0.14,0.11,0.14c0.09,0,0.25-0.07,0.44-0.21c0.85-0.64,1.95-1.72,3.14-2.98c0.11-0.14,0.23-0.18,0.3-0.18
		c0.09,0,0.14,0.07,0.14,0.16C32.67,232.14,32.65,232.23,32.58,232.3z"/>
	<path d="M36.22,233.1c-1.19,1.28-3.21,3.34-4.31,3.34c-0.16,0-0.3-0.05-0.41-0.14c-0.23-0.21-0.34-0.48-0.34-0.85
		c0-1.35,1.44-3.71,3-5.96c0.16-0.23,0.16-0.3,0.16-0.32c0-0.07-0.07-0.09-0.07-0.16c0-0.05,0.02-0.11,0.09-0.21
		c0.02-0.05,0.05-0.05,0.11-0.05c0.23,0,0.89,0.34,0.89,0.85c0,1.1-2.91,4.01-3.34,5.68c-0.02,0.11-0.05,0.23-0.05,0.3
		c0,0.16,0.07,0.23,0.18,0.23c0.62,0,2.45-1.65,3.94-3.09c0.09-0.09,0.18-0.14,0.25-0.14s0.09,0.05,0.09,0.11
		C36.43,232.8,36.38,232.94,36.22,233.1z M35.97,227.28c-0.27,0-0.5-0.14-0.62-0.44c-0.09-0.23,0.05-0.41,0.16-0.48
		c0.3-0.16,1.01-0.05,1.6-0.55c0.02-0.02,0.16-0.02,0.07,0.32C36.98,226.89,36.43,227.28,35.97,227.28z"/>
	<path d="M45.75,233.63c-1.42,1.63-2.7,2.77-3.69,2.77c-0.21,0-0.39-0.05-0.55-0.14c-0.44-0.25-0.6-0.6-0.6-1.03
		c0-0.94,0.82-2.2,1.44-3.16c0.66-1.05,0.96-1.69,0.96-2.02c0-0.18-0.09-0.27-0.25-0.27c-1.19,0-6.18,4.49-6.89,6.37
		c-0.05,0.11-0.21,0.32-0.32,0.23c-0.25-0.18-0.37-0.46-0.37-0.8c0-2.08,3.92-6.73,3.92-7.58c0-0.05-0.02-0.09-0.07-0.11
		c-0.07-0.02-0.09-0.07-0.09-0.14c0-0.09,0.05-0.21,0.11-0.18c0.57,0.27,0.82,0.64,0.82,1.1c0,0.8-0.71,1.92-1.76,3.48
		c-0.16,0.23-0.21,0.39-0.21,0.44s0,0.05,0.02,0.05c0.05,0,0.16-0.07,0.32-0.23c2.34-2.31,3.8-3.28,4.76-3.28
		c0.5,0,0.78,0.23,1.12,0.73c0.09,0.14,0.11,0.3,0.11,0.48c0,0.78-0.46,1.51-1.4,3.21c-0.55,1.01-0.73,1.49-0.73,1.83
		c0,0.16,0.05,0.25,0.18,0.25c0.34,0,1.21-0.62,2.82-2.24c0.21-0.23,0.39-0.32,0.5-0.32c0.05,0,0.09,0.02,0.09,0.09
		C46.02,233.24,45.96,233.4,45.75,233.63z"/>
	<path d="M56.03,232.18c-0.8,0.94-2.68,2.57-4.21,3.55c-0.11,0.07-0.3,0.3-0.41,0.55c-1.49,3.46-5.08,7.33-7.1,7.03
		c-0.3-0.05-0.53-0.27-0.6-0.62c-0.02-0.09-0.05-0.21-0.05-0.32c0-1.51,2.45-3.69,5.29-5.5c0.37-0.23,0.71-0.44,1.05-0.69
		c0.76-1.08,1.15-2.43,1.15-3.14c0-0.27-0.05-0.44-0.18-0.44c-0.05,0-0.11,0.02-0.18,0.09c-1.63,1.44-3.3,3.37-4.26,3.37
		c-0.14,0-0.25-0.02-0.34-0.09c-0.46-0.3-1.01-0.76-1.01-1.51c0-0.25,0.07-0.57,0.23-0.92c1.03-2.29,4.72-5.22,6.21-5.22
		c0.16,0,0.3,0.02,0.39,0.09c0.55,0.34,0.85,1.19,0.89,1.92c0,0.09-0.14,0.16-0.25,0.16c-0.11,0-0.21-0.05-0.23-0.16
		c-0.11-0.46-0.39-0.66-0.78-0.66c-1.42,0-4.17,2.47-5.27,4.65c-0.11,0.23-0.16,0.39-0.16,0.53c0,0.21,0.11,0.32,0.32,0.32
		c0.11,0,0.23-0.02,0.34-0.07c1.47-0.6,4.26-3.66,5.13-3.66c0.34,0,0.5,0.5,0.5,1.01c0,0.6-0.18,1.37-0.46,2.11
		c-0.05,0.14-0.09,0.3-0.09,0.39c0,0.05,0.02,0.05,0.09,0c1.33-0.94,2.73-1.99,3.82-3.11c0.05-0.05,0.09-0.07,0.14-0.07
		c0.09,0,0.16,0.05,0.16,0.14C56.17,231.98,56.12,232.07,56.03,232.18z M49.62,237.22c-0.05,0-0.21,0.07-0.44,0.23
		c-1.58,1.03-5.02,3.27-5.08,5.06c0,0.23,0.11,0.41,0.48,0.37c1.21-0.18,3.53-2.98,4.65-4.86c0.27-0.44,0.44-0.69,0.44-0.76
		C49.67,237.25,49.64,237.22,49.62,237.22z"/>
	<path d="M68.74,225.15c-1.63,1.81-7.79,7.49-7.79,9.67c0,0.37,0.11,0.6,0.6,0.76c0.14,0.05,0.32,0.07,0.5,0.07
		c1.19,0,3.23-0.66,4.67-0.66c0.71,0,1.28,0.16,1.56,0.62c0.09,0.16,0.14,0.27,0.14,0.37c0,0.16-0.11,0.23-0.21,0.23
		c-0.07,0-0.14-0.02-0.16-0.09c-0.02-0.05-0.11-0.09-0.23-0.09c-0.73,0-3.09,0.96-5.02,0.96c-1.28,0-2.38-0.44-2.7-1.81
		c-0.05-0.18-0.07-0.37-0.07-0.57c0-3.76,7.44-10.72,8.08-11.8c0.14-0.23,0.21-0.39,0.21-0.48c0-0.11-0.11-0.11-0.23-0.11
		c-0.16,0-0.37,0.07-0.48,0.07c-0.02,0-0.05,0-0.05-0.02c0-0.07,0.11-0.21,0.46-0.53c0.09-0.09,0.21-0.14,0.34-0.14
		c0.5,0,1.17,0.76,1.17,1.74C69.55,223.89,69.39,224.46,68.74,225.15z"/>
	<path d="M74.36,233.1c-1.19,1.28-3.21,3.34-4.31,3.34c-0.16,0-0.3-0.05-0.41-0.14c-0.23-0.21-0.34-0.48-0.34-0.85
		c0-1.35,1.44-3.71,3-5.96c0.16-0.23,0.16-0.3,0.16-0.32c0-0.07-0.07-0.09-0.07-0.16c0-0.05,0.02-0.11,0.09-0.21
		c0.02-0.05,0.05-0.05,0.11-0.05c0.23,0,0.89,0.34,0.89,0.85c0,1.1-2.91,4.01-3.34,5.68c-0.02,0.11-0.05,0.23-0.05,0.3
		c0,0.16,0.07,0.23,0.18,0.23c0.62,0,2.45-1.65,3.94-3.09c0.09-0.09,0.18-0.14,0.25-0.14s0.09,0.05,0.09,0.11
		C74.56,232.8,74.52,232.94,74.36,233.1z M74.1,227.28c-0.27,0-0.5-0.14-0.62-0.44c-0.09-0.23,0.05-0.41,0.16-0.48
		c0.3-0.16,1.01-0.05,1.6-0.55c0.02-0.02,0.16-0.02,0.07,0.32C75.11,226.89,74.56,227.28,74.1,227.28z"/>
	<path d="M84.59,232.18c-0.8,0.94-2.68,2.57-4.21,3.55c-0.11,0.07-0.3,0.3-0.41,0.55c-1.49,3.46-5.08,7.33-7.1,7.03
		c-0.3-0.05-0.53-0.27-0.6-0.62c-0.02-0.09-0.05-0.21-0.05-0.32c0-1.51,2.45-3.69,5.29-5.5c0.37-0.23,0.71-0.44,1.05-0.69
		c0.76-1.08,1.15-2.43,1.15-3.14c0-0.27-0.05-0.44-0.18-0.44c-0.05,0-0.11,0.02-0.18,0.09c-1.63,1.44-3.3,3.37-4.26,3.37
		c-0.14,0-0.25-0.02-0.34-0.09c-0.46-0.3-1.01-0.76-1.01-1.51c0-0.25,0.07-0.57,0.23-0.92c1.03-2.29,4.72-5.22,6.21-5.22
		c0.16,0,0.3,0.02,0.39,0.09c0.55,0.34,0.85,1.19,0.89,1.92c0,0.09-0.14,0.16-0.25,0.16c-0.11,0-0.21-0.05-0.23-0.16
		c-0.11-0.46-0.39-0.66-0.78-0.66c-1.42,0-4.17,2.47-5.27,4.65c-0.11,0.23-0.16,0.39-0.16,0.53c0,0.21,0.11,0.32,0.32,0.32
		c0.11,0,0.23-0.02,0.34-0.07c1.47-0.6,4.26-3.66,5.13-3.66c0.34,0,0.5,0.5,0.5,1.01c0,0.6-0.18,1.37-0.46,2.11
		c-0.05,0.14-0.09,0.3-0.09,0.39c0,0.05,0.02,0.05,0.09,0c1.33-0.94,2.73-1.99,3.82-3.11c0.05-0.05,0.09-0.07,0.14-0.07
		c0.09,0,0.16,0.05,0.16,0.14C84.73,231.98,84.69,232.07,84.59,232.18z M78.18,237.22c-0.05,0-0.21,0.07-0.44,0.23
		c-1.58,1.03-5.02,3.27-5.08,5.06c0,0.23,0.11,0.41,0.48,0.37c1.21-0.18,3.53-2.98,4.65-4.86c0.27-0.44,0.44-0.69,0.44-0.76
		C78.23,237.25,78.2,237.22,78.18,237.22z"/>
	<path d="M93.23,232.23c-2.24,1.95-4.74,3.32-5.08,4.01c-0.21,0.39-0.46,0.55-0.69,0.55c-0.39,0-0.71-0.46-0.71-1.15
		c0-0.53,1.19-2.38,2.7-4.28c0.55-0.69,0.89-1.35,0.89-1.69c0-0.27-0.16-0.37-0.41-0.37c-1.03,0-3.94,2.11-6.8,6.73
		c-0.05,0.07-0.14,0.14-0.23,0.14c-0.05,0-0.09-0.02-0.14-0.07c-0.21-0.25-0.3-0.57-0.3-0.96c0-1.9,2.29-5.27,4.03-7.88
		c1.12-1.65,2.02-2.98,2.02-3.46c0-0.07-0.02-0.11-0.07-0.16c-0.02-0.02-0.07-0.11-0.07-0.21c0-0.09,0.05-0.21,0.16-0.21
		c0.02,0,0.07,0,0.14,0.05c0.34,0.23,0.48,0.6,0.48,0.98c0,0.94-0.66,2.24-1.49,3.57c-0.96,1.6-2.15,3.21-2.57,4.12
		c-0.02,0.07-0.05,0.14-0.05,0.18c0,0.07,0.02,0.09,0.07,0.09c0.09,0,0.21-0.09,0.32-0.21c1.76-1.95,3.5-3.32,4.63-3.32
		c0.27,0,0.5,0.09,0.69,0.25c0.3,0.27,0.46,0.62,0.46,1.03c0,1.03-0.82,2.52-2.22,4.58c-0.05,0.07-0.09,0.16-0.09,0.23
		c0.07-0.02,0.16-0.09,0.23-0.14c0.57-0.32,3.57-2.45,4.1-2.89c0.07-0.07,0.11-0.09,0.16-0.09c0.07,0,0.09,0.07,0.09,0.14
		C93.48,231.93,93.41,232.07,93.23,232.23z"/>
	<path d="M99,229.02c0,0.11-0.25,0.25-0.69,0.27c-0.5,0.02-1.35,0.05-1.99,0.07c-0.21,0-0.25,0.02-0.3,0.09
		c-0.94,1.53-2.5,3.69-3.14,5.68c-0.07,0.23-0.11,0.39-0.11,0.5c0,0.23,0.11,0.32,0.3,0.32c0.66,0,2.43-1.35,3.94-2.63
		c0.16-0.14,0.32-0.21,0.41-0.21c0.05,0,0.09,0.05,0.09,0.09c0,0.09-0.07,0.23-0.23,0.39c-1.63,1.67-3.62,3.25-4.76,3.25
		c-0.23,0-0.41-0.05-0.55-0.16c-0.41-0.32-0.6-0.73-0.6-1.24c0-1.37,1.37-3.41,3-5.98c0.05-0.07,0.07-0.16,0.02-0.16
		c-0.34,0-0.6,0.02-0.82,0.02c-0.76,0-0.96-0.09-0.96-0.25c0-0.18,0.09-0.23,0.39-0.25c0.3-0.02,0.6-0.02,0.87-0.02
		c0.55,0,0.82,0.02,0.98,0.02c0.82-1.08,2.31-3.28,2.31-3.5c-0.07-0.05-0.09-0.11-0.09-0.16c0-0.07,0.05-0.14,0.16-0.11
		c0.37,0.07,0.55,0.27,0.55,0.64c0,0.62-0.39,1.49-1.42,3.11h1.95C98.79,228.82,99,228.91,99,229.02z"/>
</g>
</svg>
