<?xml version="1.0" encoding="utf-8"?>
<!-- Generator: Adobe Illustrator 22.1.0, SVG Export Plug-In . SVG Version: 6.00 Build 0)  -->
<svg version="1.1" id="Layer_1" xmlns="http://www.w3.org/2000/svg" xmlns:xlink="http://www.w3.org/1999/xlink" x="0px" y="0px"
	 viewBox="0 0 221.5 184.2" style="enable-background:new 0 0 221.5 184.2;" xml:space="preserve">
<style type="text/css">
	.Graphic_x0020_Style{fill:none;}
	.st0{fill:#FFFFFF;}
</style>
<g>
	
		<image style="overflow:visible;opacity:0.35;enable-background:new    ;" width="168" height="67" xlink:href="BB1795C9E04520DE.png"  transform="matrix(1 0 0 1 48 120)">
	</image>
	<g>
		<path class="st0" d="M209.6,142.1c-0.2-0.2-0.5-0.2-0.6,0c0,0-0.2,0.3-0.7,0.8s-1.1,1.2-2,2.1c-0.9,0.9-1.9,2-3.2,3.2
			c-1.2,1.2-2.7,2.5-4.3,4c-0.4,0.4-0.8,0.7-1.2,1.1c0.5-2,0.8-3.7,0.9-5.2c0-0.7,0.1-1.3,0-1.8c0-0.2,0-0.4,0-0.6l0,0
			c0.1-2.5-0.5-5.2-1.6-5.2c-2.7,0-11.5,12.1-16.1,14.4c-0.4,0.2-0.7,0.3-1.1,0.3c-0.6,0-1-0.5-1-1.3c0-0.5,0.1-1.2,0.5-2.1
			c3.5-8.6,12.1-18.3,16.6-18.3c1.2,0,2.1,0.8,2.4,2.6c0.1,0.5,0.4,0.6,0.7,0.6c0.4,0,0.8-0.3,0.8-0.6c-0.1-2.9-1.1-6.2-2.8-7.6
			c-0.3-0.3-0.7-0.4-1.2-0.4c-4.7,0-16.3,11.5-19.5,20.5c-0.1,0.2-0.1,0.4-0.2,0.6c-4.4,5.4-6.8,7.5-7.8,7.5c-0.4,0-0.6-0.4-0.6-1
			c0-1.4,0.6-3.2,2.3-7.2c3-6.7,4.4-9.5,4.4-12.6c0-0.7-0.1-1.4-0.4-1.9c-1.1-2-1.9-2.9-3.5-2.9c-3,0-7.6,3.8-15,12.9
			c-0.5,0.6-0.9,0.9-1,0.9s-0.1,0-0.1-0.2s0.1-0.8,0.6-1.7c3.3-6.1,5.5-10.5,5.5-13.7c0-1.8-0.8-3.2-2.6-4.3
			c-0.2-0.1-0.4,0.4-0.4,0.7c0,0.3,0.1,0.5,0.3,0.5c0.1,0.1,0.2,0.3,0.2,0.5c0,2.1-5,10.4-8.7,18.2c-0.2,0.1-0.4,0.2-0.6,0.5
			c-4.7,5.7-10.4,12.2-12.4,12.2c-0.4,0-0.6-0.3-0.6-0.9c0-0.3,0.1-0.7,0.1-1.2c1.4-6.6,10.5-18,10.5-22.3c0-2-2.1-3.3-2.8-3.3
			c-0.2,0-0.3,0-0.4,0.2c-0.2,0.4-0.3,0.6-0.3,0.8c0,0.3,0.2,0.4,0.2,0.6c0,0.1,0,0.4-0.5,1.3c-2.3,4.2-4.6,8.5-6.3,12.4
			c-6.4,6.9-15.1,12.6-19,12.6c-1.1,0-2-0.5-2-2.1c0-4.9,4.1-13.1,11.7-20.6c0.6-0.6,1.2-0.9,1.6-0.9c0.6,0,1.1,0.6,1.1,1.7
			c0,0.5-0.1,1.1-0.3,1.8c-0.2,1.3,0.3,1.6,0.7,1.6c0.2,0,0.4-0.1,0.6-0.3c1.2-1.2,1.8-2.4,1.8-3.7c0-1.9-1.2-3.8-2.1-5.4
			c-0.6-1.2-1.3-1.5-2.1-1.5c-0.9,0-1.9,0.5-3.2,1.7c-5.2,5-10,11.8-12,17.8c-5,6.4-7.8,8.8-8.8,8.8c-0.4,0-0.6-0.4-0.6-1
			c0-1.4,0.6-3.2,2.3-7.2c3-6.7,4.4-9.5,4.4-12.6c0-0.7-0.1-1.4-0.4-1.9c-1.1-2-1.9-2.9-3.5-2.9c-3,0-7.6,3.8-15,12.9
			c-0.5,0.6-0.9,0.9-1,0.9s-0.1,0-0.1-0.2s0.1-0.8,0.6-1.7c3.3-6.1,5.5-10.5,5.5-13.7c0-1.8-0.8-3.2-2.6-4.3
			c-0.2-0.1-0.4,0.4-0.4,0.7c0,0.3,0.1,0.5,0.3,0.5c0.1,0.1,0.2,0.3,0.2,0.5c0,2.1-5,10.4-8.7,18.2c-5.7,7.6-9.8,11.6-11.2,11.6
			c-0.4,0-0.6-0.2-0.5-1.3c0.6-3.5,2.7-8.5,4.5-12.1c0.3-0.6,0.4-1.2,0.4-2c0-1.5-0.7-2.9-1.9-2.9c-0.3,0-0.6,0.1-0.9,0.3
			c-2.3,1.2-10.6,11.9-14.2,15.5c-1.4,1.4-2.2,2.1-2.7,2.1c-0.3,0-0.4-0.3-0.4-0.7c0-0.5,0.1-1.1,0.4-1.9
			c4.1-11.9,13.6-20.3,17.5-20.3c0.6,0,1.2,0.4,1.4,0.9c0.3,0.5,0.6,1,0.9,1c0.4,0,0.9-0.4,0.6-1.6c-0.9-4-2.4-5.2-4.2-5.2
			c-0.8,0-1.7,0.3-2.5,0.7c-6.1,3.5-14,13.6-18,23.9c-0.2,0.5-0.4,1.2-0.4,1.8c0,2.5,1.9,5.2,3.9,5.2c0.6,0,1.3-0.3,1.9-0.8
			c4.2-3.5,9.6-11.9,12.5-15.2c0.1-0.1,0.2-0.2,0.3-0.2c0.1,0,0.3,0.2,0.3,0.5c0,0.2-0.1,0.4-0.1,0.5c-1.8,4.1-2.7,7.6-2.7,10.2
			s0.9,4.2,2.7,4.2c0.6,0,1.4-0.2,2.2-0.6c1.7-0.9,5.1-4.5,7.9-8c-0.8,2.3-1.3,4.4-1.3,6c0,1.4,0.4,2.4,1.2,3.2
			c0.4,0.4,0.9-0.5,1-0.9c2.2-7.4,17.9-25,21.7-25c0.5,0,0.8,0.4,0.8,1.1c0,1.3-0.9,3.8-3,7.9c-1.9,3.8-4.5,8.7-4.5,12.4
			c0,1.7,0.5,3.1,1.9,4.1c0.5,0.4,1.1,0.5,1.7,0.5c2.6,0,6-3.3,9.7-8.3c-0.1,0.7-0.2,1.4-0.2,2c0,1.9,0.4,3.5,1.4,5
			c1,1.6,2.5,2.2,4.1,2.2c5.2,0,12.4-6.3,17.1-11.4c-0.9,2.6-1.5,4.9-1.5,6.8c0,1.4,0.4,2.5,1.1,3.3c0.4,0.4,0.8,0.5,1.3,0.5
			c3,0,8.1-6.1,11.9-11c-1.1,2.9-1.9,5.5-1.9,7.5c0,1.4,0.4,2.4,1.2,3.2c0.4,0.4,0.9-0.5,1-0.9c2.2-7.4,17.9-25,21.7-25
			c0.5,0,0.8,0.4,0.8,1.1c0,1.3-0.9,3.8-3,7.9c-1.9,3.8-4.5,8.7-4.5,12.4c0,1.7,0.5,3.1,1.9,4.1c0.5,0.4,1.1,0.5,1.7,0.5
			c2.5,0,5.6-2.9,9-7.4c0.1,2.9,1.7,4.6,3.2,5.8c0.3,0.3,0.6,0.4,1.1,0.4c3,0,8.3-7.6,13.4-13.2c0.2-0.3,0.4-0.4,0.6-0.4
			c0.4,0,0.9,1.5,0.3,4.3l0.1-0.1c-0.4,2.1-1.2,4.8-2.3,7.8c-0.2,0.5-0.4,1.1-0.7,1.6c-0.1,0.1-0.2,0.2-0.3,0.2
			c-1,0.7-2.1,1.5-3.2,2.3c-2.2,1.6-4.3,3.5-6.3,5.6c-0.5,0.5-1,1.1-1.4,1.6c-0.5,0.6-1,1.1-1.4,1.7c-0.9,1.2-1.7,2.4-2.3,3.8
			c-0.3,0.7-0.5,1.5-0.5,2.4c0,0.2,0.1,0.5,0.1,0.7c0.1,0.2,0.2,0.5,0.4,0.7c0.3,0.4,0.8,0.7,1.2,0.8c0.9,0.3,1.8,0.2,2.5,0
			c0.8-0.2,1.5-0.4,2.2-0.8c2.8-1.3,5.2-3.4,6.8-5.8c1.6-2.2,3-4.6,4-6.9c0.5-1.1,1-2.2,1.5-3.3c0.5-1,1-2.1,1.4-3.1
			c0.2-0.4,0.3-0.8,0.5-1.3c1.4-1.3,2.7-2.5,3.9-3.7c3.1-3,5.5-5.8,7-7.8c0.8-1,1.4-1.8,1.8-2.3c0.4-0.6,0.6-0.8,0.6-0.8
			C209.8,142.5,209.8,142.2,209.6,142.1z M185.8,169.9c-0.6,1.1-1.3,2.1-2.1,3.1s-1.6,2-2.6,2.8c-0.5,0.4-1.1,0.7-1.6,1
			c-0.6,0.2-1.2,0.3-1.7,0.2s-0.7-0.4-0.8-0.9s0.1-1.2,0.3-1.8c0.5-1.2,1.3-2.4,2.2-3.4c0.4-0.5,0.9-1,1.4-1.5s1-1,1.5-1.5
			c2-1.9,4.2-3.5,6.4-5c0.2-0.1,0.4-0.3,0.6-0.4c-0.1,0.2-0.2,0.5-0.3,0.7C188.3,165.5,187.2,167.6,185.8,169.9z"/>
	</g>
</g>
<g>
	
		<image style="overflow:visible;opacity:0.35;enable-background:new    ;" width="33" height="62" xlink:href="BB1795C9E04520E2.png"  transform="matrix(1 0 0 1 8 109)">
	</image>
	<g>
		<path class="st0" d="M34.5,119.1c0-2.5-0.9-4.5-3-5.8c-0.4-0.3-0.9,0.6-0.9,1.2c0,0.2,0.1,0.4,0.3,0.5c0.2,0.2,0.3,0.5,0.3,0.9
			c0,5.6-17,31.2-17,43.5c0,0.6,0,1.3,0.1,1.9c0.1,0.6,0.3,1,0.4,1s0.4-0.3,0.4-0.7C16.9,151,34.5,130.2,34.5,119.1"/>
	</g>
</g>
<g>
	
		<image style="overflow:visible;opacity:0.35;enable-background:new    ;" width="57" height="72" xlink:href="BB1795C9E04520E5.png"  transform="matrix(1 0 0 1 12 98)">
	</image>
	<g>
		<path class="st0" d="M62.7,121.7c0-9.5-4.6-18.7-19-18.7c-4.8,0-11,1.2-18.9,4c-1.6,0.5-2.3,0.8-2.7,0.8c-0.1,0-0.2-0.1-0.2-0.2
			c0-0.4,0.9-1.1,0.9-1.6c0-0.3-0.3-0.5-1.9-0.5c-0.6,0-2.1,0.8-2.1,2.3c0,0.5,0.1,1.2,0.6,1.8c0.9,1.2,2.3,1.6,4.2,1.6
			c5.7,0,15.2-3.8,23.3-3.8c3.5,0,6.7,0.7,9.2,2.7c2.2,1.8,3.4,4.3,3.4,7.4c0,10.3-12.2,26.5-36.4,40.8c-0.3,0.2-0.5,0.2-0.8,0.2
			c-1.1,0-1.8-1-2.2-1c-0.1,0-0.4,0.5-0.4,0.8c0,2.2,2,3.2,4.6,3.2C35.6,161.4,62.7,141.9,62.7,121.7"/>
	</g>
</g>
<g>
	<g>
		
			<image style="overflow:visible;opacity:0.35;enable-background:new    ;" width="91" height="47" xlink:href="BB1795C9E04520E6.png"  transform="matrix(1 0 0 1 106 80)">
		</image>
		<g>
			<path class="st0" d="M190,103.4c-0.2,0-0.4,0.1-0.7,0.3c-3.4,4-13.5,12.6-17.6,12.6c-1.1,0-2-0.6-1.7-2.8
				c1.3-8.5,6.9-15.5,11.7-18.9c0.8-0.6,1.5-0.8,1.9-0.8c0.7,0,1,0.5,1,1.3s-0.5,2.1-1.5,3.4s-4,4.2-6.5,6.2
				c-0.5,0.3-0.7,0.8-0.7,1.2c0,0.3,0.1,0.6,0.6,0.4c4-1.3,8.9-4.9,9.9-8.8c0.1-0.4,0.1-0.8,0.1-1.3c0-3.1-2-7.4-4.3-7.4
				c-2.4,0-9.6,7.7-13.3,15.4c-3.6,4.1-13.3,12.2-17.3,12.2c-1.1,0-2-0.6-1.7-2.8c1.3-8.5,6.9-15.5,11.7-18.9
				c0.8-0.6,1.5-0.8,1.9-0.8c0.7,0,1,0.5,1,1.3s-0.5,2.1-1.5,3.4s-4,4.2-6.5,6.2c-0.5,0.3-0.7,0.8-0.7,1.2c0,0.3,0.1,0.6,0.6,0.4
				c4-1.3,8.9-4.9,9.9-8.8c0.1-0.4,0.1-0.8,0.1-1.3c0-3.1-2-7.4-4.3-7.4c-2.1,0-8,6-11.9,12.8c-0.1,0.1-0.3,0.3-0.5,0.5
				c-3.4,4.6-6.6,8.5-9.1,10.9c-0.5,0.5-1,0.8-1.3,0.8c-0.2,0-0.3-0.2-0.3-0.5c0-0.4,0.2-1.2,0.5-2.1c1.7-4.4,4.4-10.2,4.4-14.2
				c0-0.8-0.1-1.5-0.3-2.1c-0.7-2-1.8-2.7-3.2-2.7c-0.9,0-1.9,0.3-3.2,0.7c-0.4,0.2-0.8,0-0.8-0.2s0.1-0.4,0.3-0.7
				c0.7-1.2,1.1-2.3,1.1-3.3c0-1.3-0.6-2.4-1.7-3.4c-0.3-0.3-0.7-0.4-1.1-0.4c-0.3,0-0.7,0.1-0.9,0.4c-1.4,1.8-2.2,3.6-2.2,5.4
				c0,1.3,0.3,2.4,1,3.6c0,0.3-3.1,5.4-5.7,9c-0.1,0.1-0.1,0.1-0.2,0.2c-3.6,4.7-9,10.9-14.2,14c-0.3,0.2-0.2,0.5-0.1,0.7
				c0.1,0.3,0.5,0.5,0.9,0.4l0,0c0,0,1.2-0.4,2.9-1.4c0.4-0.2,0.9-0.5,1.3-0.8c0.5-0.3,0.9-0.7,1.4-1c1-0.8,1.9-1.6,2.8-2.6
				c1.8-1.9,2.7-3,3.9-4.7c1-1.4,1.6-2.3,1.8-2.8c0.3-0.5,2.6-4,2.6-4l0,0c1.5-2.2,2.9-4.4,3.7-5.5c0.3-0.4,1-0.3,1.4-0.4
				c1.5-0.3,3.1-1.3,4.5-1.3c0.9,0,1.3,0.6,1.3,1.5c0,3.2-4.2,10.5-5.8,14.2c-0.7,1.7-1,3-1,4.1c0,1.8,0.8,3,2,4.1
				c0.4,0.3,0.8,0.5,1.1,0.5c0.8,0,1.3-0.5,2.8-2.2c2.2-2.5,4.6-5.7,7-9c-0.6,1.7-1,3.4-1,5c0,0.7,0.1,1.3,0.2,1.8
				c0.8,3.6,2.6,5,4.9,5c4.7,0,11.2-5.6,15.6-11c-0.4,1.4-0.7,2.8-0.7,4.1c0,0.7,0.1,1.3,0.2,1.8c0.8,3.6,2.6,5,4.9,5
				c5.7,0,14.1-8.3,18.2-14.4c0.2-0.3,0.3-0.5,0.3-0.8S190.2,103.4,190,103.4z"/>
		</g>
	</g>
	<g>
		
			<image style="overflow:visible;opacity:0.35;enable-background:new    ;" width="90" height="62" xlink:href="BB1795C9E04520E4.png"  transform="matrix(1 0 0 1 85 65)">
		</image>
		<g>
			<path class="st0" d="M125.9,97.1c0.1,0.1,0.2,0.2,0.2,0.2c0.3,0,0.4-0.2,0.4-0.7c0-0.2-0.1-0.5-0.1-0.8c-0.6-2.3-2.8-3-5.4-3
				c-4.6,0-10.5,2.3-11.9,2.3c-0.2,0-0.3,0-0.3-0.2s0.1-0.4,0.3-0.8c1.8-3.9,4.5-8.9,4.8-12.7c9.5-2.9,25.1-8.4,34.6-8.4
				c5.5,0,9.4,2.2,9.4,4.1c0,0.7-0.7,3.9-2,5.1c-0.5,0.5-1.7,1.6-1.7,2.1c0,0.1,0.1,0.2,0.2,0.2s0.5-0.1,0.8-0.3
				c6.2-3.3,7.3-3.7,9.9-5.7c1.9-1.3,3.2-2.7,3.2-4.2c0-0.8-0.4-1.6-1.2-2.5c-1.6-1.6-4.9-1.8-9.6-2.3c-9.9-1-29.8,4.9-44.4,8.7
				c-0.1-0.1-0.1-0.1-0.2-0.1c-0.2,0-0.3,0.1-0.4,0.3c-8.4,2.2-15.1,3.6-16.8,2.5c-1.8-1.1-2-3-2-3.8c0-0.6,1-1.5,1.9-2.5
				c-0.7,0-3.5,4-3.8,6.6c-0.2,2.6-1.6,3.5,2.4,3.5c3.7,0,8.6-0.8,13.6-1.7c0.9-0.2,2-0.5,3.4-0.8c-1.8,3.8-5.1,10-7.2,13.2
				c-0.3,0.5-0.7,1.1-1,1.2c-2.4,1-4.8,0.5-4.8,0.8c0,0.9,2.1,1.4,3.2,1.7c0.2,0.1,0.1,0.3-0.1,0.6c-3.3,6.3-4.9,11.2-4.9,14.3
				c0,1.9,0.6,3.2,1.7,3.8c0.8,0.5,1.3,0.6,1.5,0.6c0.3,0,0.4-0.2,0.4-0.5c0-0.2-0.1-0.7-0.1-1.2c0-2.4,3.5-11.7,6.1-16.6
				c0.2-0.5,0.5-1.1,0.9-1.2c4.1-1.1,12.4-2.6,17.2-2.9C126,96,125.5,96.5,125.9,97.1z"/>
		</g>
	</g>
</g>
<g>
	
		<image style="overflow:visible;opacity:0.35;enable-background:new    ;" width="45" height="45" xlink:href="BB1795C9E04520E3.png"  transform="matrix(0.9778 0 0 0.9778 36.8 58)">
	</image>
	<g>
		<g>
			<path class="st0" d="M74.1,74c-1.1,0.1-2.5,0.1-3.8,0.1s-2.5,0-3.2-0.1c-0.1,0-0.2-0.1-0.2-0.2c0-0.2,0.1-0.4,0.4-0.8
				c2.3-3.6,3.3-5.8,3.3-7.4c0-1.2-0.6-2.1-1.5-2.9c-0.1-0.1-0.1-0.1-0.2-0.1c-0.2,0-0.4,0.3-0.4,0.4c0,0.1,0.1,0.1,0.2,0.2
				c0,0.1,0.1,0.2,0.1,0.4c0,1.6-2.8,6.6-5,9.9c-0.2,0.3-0.9,0.6-2.1,0.6c-0.3,0-0.7-0.1-1-0.1s-0.8,0-0.8,0.2c0,0.7,0.6,0.8,1.6,1
				c0.8,0.2,1.1,0.6,0.9,0.9c-3.3,5.8-4.3,9.3-4.3,13.4c0,2.9,1,4.1,2.3,4.1c0.7,0,1.4-0.3,2.1-0.9c4.7-3.8,6.5-8.5,6.5-10.5
				c0-2.7-0.8-4.8-3-5.9c-0.1-0.1-0.1-0.1-0.1-0.2c0-0.3,0.3-0.7,0.6-0.7c2.2-0.2,6.7-0.3,7.7-0.7c0.3-0.1,0.4-0.2,0.4-0.4
				S74.3,74,74.1,74z M67.3,82.3c0,1.3-0.6,4.8-4.2,7.7c-0.6,0.5-1.3,1.1-2.2,1.1c-0.6,0-0.9-0.9-0.9-2.1c0-3.9,3.6-9.5,4.6-11.3
				c0.2-0.4,0.3-0.5,0.5-0.7C66.7,78.2,67.3,80,67.3,82.3z"/>
			<path class="st0" d="M56.8,78.4c-0.5-1.2-1.4-2.2-2.4-2.8c0.4-0.5,0.6-0.8,0.6-1.2s-0.3-0.8-1-1.7c-0.2-0.3-0.4-0.4-0.6-0.4
				s-0.4,0.1-0.8,0.4c-3.9,3.4-9.4,10.6-9.4,15.7c0,1.5,0.5,2.8,1.6,3.7c0.4,0.4,1,0.6,1.6,0.6c4,0,10.8-6.9,10.8-12.1
				C57.3,79.8,57.1,79.1,56.8,78.4z M48.9,90.4c-0.8,0.4-1.6,0.7-2.1,0.7c-0.8,0-1.2-0.4-1.4-1.4c-0.4-3.1,4.6-10.2,8-12.9
				c1.4,0.3,2,0.9,2.3,2.1c0.1,0.4,0.2,0.9,0.2,1.4C55.8,83.9,52.6,88.3,48.9,90.4z"/>
		</g>
	</g>
</g>
<g>
	
		<image style="overflow:visible;opacity:0.35;enable-background:new    ;" width="34" height="69" xlink:href="BB1795C9E04520ED.png"  transform="matrix(1 0 0 1 1.8 7)">
	</image>
	<g>
		<path class="st0" d="M29.6,15.9c0-0.6-0.1-1-0.3-1.4c-1.1-1.9-1.8-3-2.6-3c-0.6,0-1.6,0.8-2.5,2.3c-0.2,0.2-0.5,0.8-0.5,1
			c0,0.3,0.3,0.5,0.5,0.5s0.6-0.3,1-0.3c0.1,0,0.3,0.1,0.3,0.3c0,1.7-3.9,8.1-8,16.2c-4.7,9.1-9.1,19-9.1,27.4
			c0,3.1,0.6,5.9,2.2,8.1c0.2,0.3,0.5,0.6,0.6,0.6c0.4,0,0.6-0.5,0.6-1.3c0-6.5,6.1-19.5,11.1-31.4C26.6,26.6,29.6,19,29.6,15.9"/>
	</g>
</g>
<g>
	
		<image style="overflow:visible;opacity:0.35;enable-background:new    ;" width="136" height="83" xlink:href="BB1795C9E04520EC.png"  transform="matrix(1.0361 0 0 1.0361 70.0843 7)">
	</image>
	<g>
		<path class="st0" d="M204,47.5c-0.2,0-0.4,0.2-0.6,0.4c-2.1,2.7-4.8,5.9-6.6,7.5c-0.1,0.1-0.2,0.2-0.3,0.2s-0.1-0.1-0.1-0.2
			c0.2-0.6,0.3-1.1,0.3-1.7c0-2.5-1.8-4.4-3.7-6.8c-0.6-0.7-0.8-1.6-0.8-2.4c0-1.7,1.5-3.4,4.2-4.9c2.4-1.1,2.9-2,2.9-2.5
			s-0.3-0.8-0.5-1.3c-0.6-1.5-1.2-1.9-1.9-1.9c-0.3,0-0.5,0-0.8,0.2c-4.9,2-7.4,4.8-7.4,8.2c0,1.5,0.5,3.1,1.7,4.7
			c-0.1,0.1-0.2,0.2-0.3,0.4c-3.5,4.7-6.7,8.6-9.2,10.9c-0.5,0.5-1,0.7-1.2,0.7s-0.3-0.2-0.3-0.5c0-0.4,0.2-1.1,0.5-2.1
			c1.7-4.5,4.5-10.3,4.5-14.3c0-0.7-0.1-1.6-0.3-2.1c-0.7-2-1.8-2.7-3.3-2.7c-0.9,0-2,0.2-3.2,0.6c-0.4,0.2-0.8,0-0.8-0.2
			s0.1-0.4,0.3-0.6c0.7-1.1,1.1-2.3,1.1-3.3c0-1.3-0.6-2.4-1.8-3.4c-0.3-0.2-0.6-0.4-1-0.4c-0.3,0-0.6,0.1-0.9,0.4
			c-1.5,1.8-2.3,3.6-2.3,5.5c0,1.2,0.3,2.4,1,3.6c0,0.3-3.1,5.3-5.6,8.9c0,0.1-0.1,0.1-0.1,0.2c-5.6,7.6-9.6,11.5-11,11.5
			c-0.4,0-0.6-0.2-0.5-1.1c0.5-3.3,2.5-7.9,4.2-11.2c0.3-0.6,0.4-1.1,0.4-1.9c0-1.5-0.6-2.7-1.8-2.7c-0.3,0-0.5,0.1-0.8,0.2
			c-2.2,1.1-9.8,11.1-13.3,14.4c-1.3,1.3-2.1,2-2.6,2c-0.3,0-0.4-0.2-0.4-0.6c0-0.4,0.1-1,0.3-1.8c3.8-11.1,12.6-18.9,16.3-18.9
			c0.6,0,1,0.3,1.3,0.8s0.6,0.9,0.8,0.9c0.3,0,0.8-0.3,0.6-1.6c-0.8-3.7-2.3-4.9-3.9-4.9c-0.7,0-1.6,0.2-2.4,0.6
			c-4.1,2.4-9,7.9-12.8,14.3c0,0-0.1-0.1-0.2-0.1c-0.2,0-0.4,0.1-0.6,0.3c-3.4,4-13.7,12.5-17.8,12.5c-1,0-2-0.6-1.7-2.9
			c1.2-8.5,7-15.5,11.9-19c0.8-0.6,1.5-0.8,2-0.8c0.6,0,1,0.5,1,1.2c0,0.8-0.5,2.1-1.5,3.4c-1,1.3-4.1,4.1-6.6,6.2
			c-0.5,0.3-0.6,0.8-0.6,1.1c0,0.2,0.1,0.6,0.6,0.4c4-1.2,9-4.9,9.9-8.8c0.1-0.4,0.1-0.8,0.1-1.3c0-3.1-2-7.4-4.4-7.4
			c-1.9,0-6.9,4.9-10.8,10.7c-2.1,1.5-7.3,5-9.5,6.6c-0.3,0.2-0.5,0-0.5-0.2s0-0.3,0.1-0.6c3.1-7.4,4.8-13.8,4.8-18
			c0-2-0.3-3.4-0.9-4.6c-0.4-0.6-0.8-0.8-1.6-0.8c-5.8,0-21.4,22.3-30.9,29.7c-0.8,0.6-1.7,1.1-2.2,1.1s-0.9-0.3-0.9-1.1
			c0-0.9,0.5-2.4,1.7-4.8c6.4-13,18.9-26.7,18.9-34.9c0-1.1-0.3-2.2-0.8-3.1c-0.8-1.3-2.3-2-4.2-2c-5,0-12.6,3.7-17.2,6.4
			c-0.1,0.1-0.3,0.2-0.3,0.2c-0.1,0-0.2-0.2-0.2-0.3c0-0.2,0.2-0.6,0.2-0.8c0-0.2-0.1-0.2-0.2-0.2s-0.6,0.4-1.2,0.9
			c-0.4,0.4-0.6,1.1-0.6,1.8c0,1.3,0.6,2.9,2.1,2.9c2.5,0,12.8-8.8,17.7-8.5c1.2,0.1,1.8,0.6,1.8,1.7c0,6-21.8,27-21.8,39
			c0,0.8,0.1,1.7,0.4,2.4c0.8,2.5,2.2,5.3,5.1,5.3c0.4,0,0.8-0.1,1.5-0.2c6.5-2.1,21.2-23.3,28.5-30.7c0.5-0.4,0.8-0.6,1.2-0.6
			c0.6,0,0.9,0.9,0.9,2.4c0,4.4-2.6,13.7-7.1,20.8c-1.3,2.1-2,2.4-3.1,3.5C99,62.6,88,75.9,88,80.4c0,2.8,1,3.6,2.2,3.6
			c0.9,0,2-0.4,2.8-1.1c3.4-2.8,10.8-12.7,16.9-25.7c0.5-1,1.2-1.8,1.8-2.2c2.8-2.5,7.5-6.2,10.4-8.3c-2.1,3.5-3.5,7.3-3.5,10.5
			c0,0.6,0.1,1.2,0.2,1.9c0.8,3.6,2.6,5.1,5,5.1c5,0,12-6.2,16.6-11.9c-0.7,1.5-1.3,2.8-1.9,4.2c-0.2,0.5-0.3,1.1-0.3,1.7
			c0,2.4,1.8,4.9,3.6,4.9c0.6,0,1.2-0.2,1.8-0.7c3.9-3.3,8.9-11.1,11.7-14.2c0.1-0.1,0.2-0.2,0.3-0.2s0.3,0.2,0.3,0.4
			s-0.1,0.3-0.1,0.5c-1.7,3.7-2.6,7-2.6,9.4s0.8,3.9,2.5,3.9c0.5,0,1.2-0.2,2-0.6c2.2-1.1,7.1-6.8,9.7-10.8
			c2.8-3.3,5.9-8.2,7.3-10.2c0.3-0.4,1-0.3,1.5-0.4c1.6-0.3,3.1-1.3,4.6-1.3c0.9,0,1.3,0.6,1.3,1.6c0,3.2-4.2,10.5-5.9,14.3
			c-0.7,1.7-1,3-1,4.1c0,1.9,0.8,3,2,4.1c0.4,0.3,0.8,0.5,1.1,0.5c0.8,0,1.3-0.5,2.9-2.2c3.2-3.7,6.9-8.6,10.4-13.5
			c0-0.1,0.1-0.1,0.1-0.2c0.2,0.2,0.4,0.4,0.6,0.7c1.2,1.3,1.8,2.7,1.8,4c0,2.7-2.6,5.5-7.7,8.6c-1.5,0.8-2,1.6-2,2.3
			c0,0.4,0.3,0.8,0.6,1.2c0.3,0.3,1.1,0.6,2,0.6c2.7,0,6.6-2.4,8.6-5.5c0.3-0.4,0.6-1.1,0.8-1.6c3.1-2.8,6.2-6.8,8.2-9.5
			c0.2-0.3,0.3-0.6,0.3-0.8S204.3,47.5,204,47.5z M95.4,75.8c-0.4,0.4-1.7,1.9-2.5,1.9c-0.6,0,0-1.7,0.2-2.2s6.4-10.5,13.3-16.9
			C104.2,62.2,95.8,75.4,95.4,75.8z"/>
	</g>
</g>
<g>
	
		<image style="overflow:visible;opacity:0.35;" width="50" height="65" xlink:href="10FB78340525DFD2.png"  transform="matrix(1 0 0 1 16 8.2)">
	</image>
	<g>
		<g>
			<path class="st0" d="M28.1,56.5c-0.3,1.7,0.6,2.8,2.1,2.3c8.6-2.3,21-6,27.7-6.2c0.4,0,0.8,0.2,0.8,0.4c0,0.3-0.6,0.8-1.5,1
				c-8.9,2.4-23.3,10.4-28.6,10.4c-4.2,0-6.5-5.1-6.5-9.2c0-1.4,0.3-3,1-4.3C29.3,38,55.7,25.3,55.7,18.8c0-0.7-0.2-1.2-0.8-1.8
				c-1-1-2.5-1.3-4.2-1.3c-4.6,0-10.3,2.5-10.6,3.2c0.1,0.3,0.2,0.6,0.2,0.8c0,0.9-1.2,1.9-4.9,3.1c-1.2,0.3-1.9-1.4-1.9-3
				c0-1.2,0.3-2.4,1.3-3.2c2.8-2.1,8.3-4,13.5-4c4.2,0,8.2,1.2,10.4,4.3c0.8,1.1,1.2,2.3,1.2,3.5C60,31.7,29.6,47.5,28.1,56.5z"/>
		</g>
	</g>
</g>
</svg>
