<?xml version="1.0" encoding="utf-8"?>
<!-- Generator: Adobe Illustrator 26.3.1, SVG Export Plug-In . SVG Version: 6.00 Build 0)  -->
<svg version="1.1" id="Layer_2_1_" xmlns="http://www.w3.org/2000/svg" xmlns:xlink="http://www.w3.org/1999/xlink" x="0px" y="0px"
	 viewBox="0 0 969.6 157.1" style="enable-background:new 0 0 969.6 157.1;" xml:space="preserve">
<style type="text/css">
	.st0{fill:#000406;}
	.st1{fill:none;stroke:#373738;stroke-miterlimit:5;}
	.st2{fill:none;stroke:#FBB040;stroke-miterlimit:5;}
	.st3{fill:#FFFFFF;}
	.st4{fill:none;stroke:#F5D435;stroke-width:2;stroke-linecap:round;stroke-miterlimit:10;}
	.st5{fill:none;stroke:#F5D435;stroke-width:2;stroke-linecap:round;stroke-miterlimit:10;stroke-dasharray:0.5025,5.0246;}
	.st6{fill:none;stroke:#F5D435;stroke-width:2;stroke-linecap:round;stroke-miterlimit:10;stroke-dasharray:0.5526,5.5259;}
	.st7{fill:none;stroke:#F5D435;stroke-width:2;stroke-linecap:round;stroke-miterlimit:10;stroke-dasharray:0.4903,4.9028;}
	.st8{fill:none;stroke:#F5D435;stroke-width:2;stroke-linecap:round;stroke-miterlimit:10;stroke-dasharray:0.4531,4.5312;}
	.st9{fill:none;stroke:#F5D435;stroke-width:2;stroke-linecap:round;stroke-miterlimit:10;stroke-dasharray:0.4864,4.8642;}
	.st10{fill:none;stroke:#F5D435;stroke-width:2;stroke-linecap:round;stroke-miterlimit:10;stroke-dasharray:0.4848,4.8477;}
	.st11{fill:none;stroke:#F5D435;stroke-width:2;stroke-linecap:round;stroke-miterlimit:10;stroke-dasharray:0.5339,5.3385;}
	.st12{fill:none;stroke:#F5D435;stroke-width:2;stroke-linecap:round;stroke-miterlimit:10;stroke-dasharray:0.5023,5.023;}
	.st13{fill:none;stroke:#F5D435;stroke-width:2;stroke-linecap:round;stroke-miterlimit:10;stroke-dasharray:0.5427,5.4268;}
	.st14{fill:none;stroke:#F5D435;stroke-width:2;stroke-linecap:round;stroke-miterlimit:10;stroke-dasharray:0.5134,5.1343;}
	.st15{fill:none;stroke:#F5D435;stroke-width:2;stroke-linecap:round;stroke-miterlimit:10;stroke-dasharray:0.5261,5.2615;}
	.st16{fill:none;stroke:#F5D435;stroke-width:2;stroke-linecap:round;stroke-miterlimit:10;stroke-dasharray:0.4928,4.928;}
	.st17{fill:none;stroke:#F5D435;stroke-width:2;stroke-linecap:round;stroke-miterlimit:10;stroke-dasharray:0.4996,4.9959;}
	.st18{fill:none;stroke:#F5D435;stroke-width:2;stroke-linecap:round;stroke-miterlimit:10;stroke-dasharray:0.5387,5.3867;}
	.st19{fill:none;stroke:#F5D435;stroke-width:2;stroke-linecap:round;stroke-miterlimit:10;stroke-dasharray:0.507,5.0695;}
	.st20{fill:none;stroke:#F5D435;stroke-width:2;stroke-linecap:round;stroke-miterlimit:10;stroke-dasharray:0.4819,4.8188;}
	.st21{fill:none;stroke:#F5D435;stroke-width:2;stroke-linecap:round;stroke-miterlimit:10;stroke-dasharray:0.5359,5.3593;}
	.st22{fill:none;stroke:#F5D435;stroke-width:2;stroke-linecap:round;stroke-miterlimit:10;stroke-dasharray:0.4807,4.8072;}
	.st23{fill:none;stroke:#F5D435;stroke-width:2;stroke-linecap:round;stroke-miterlimit:10;stroke-dasharray:0.5109,5.1087;}
	.st24{fill:none;stroke:#F5D435;stroke-width:2;stroke-linecap:round;stroke-miterlimit:10;stroke-dasharray:0.4865,4.8651;}
	.st25{enable-background:new    ;}
	.st26{clip-path:url(#SVGID_00000163038706548225477250000016822395805210178715_);}
	.st27{clip-path:url(#SVGID_00000021826966253842469670000005459036597485246096_);}
	.st28{clip-path:url(#SVGID_00000024702273122636370710000004292685178057705115_);}
	.st29{clip-path:url(#SVGID_00000134968549310269793040000012593206743228551575_);}
	.st30{clip-path:url(#SVGID_00000147184573555023266570000010361716029444119976_);}
	.st31{clip-path:url(#SVGID_00000057140405513902387260000018311670984826606999_);}
	.st32{fill:url(#SVGID_00000117648153779499936240000000536956649807493282_);}
</style>
<path class="st0" d="M-2.7,104.9l10.9,0.1V103h7.5v-1.1h6.6v-1.2h5.9v3.4h13.5v-0.9h4.9v0.8h2.2v-2.3h3.1v2.3h5.3v0.9h1.2v-1.8h1.1
	v1.2h2.3l0.7-0.7h8.2v-1.1h1.9v-1.1h2.2v1.1h0.8v-1.2h2.6v1.1h3.1v0.9H79v1.2h1.9h11.7v3.4h6.8h1.8v-3.1h1.2v-1.5h1.9v1.4h3v2.4
	l3.3,1.9l3.6-0.3v-4.1h1.5v2.9h2.6v-4.2h11.4v2.2h1.5v-1.4h6.3v1.5h4.1v0.9h6.6h4.6l0.6-9.7h1.6l0.8,10.6l2.4-0.3v-6.6l4.6-3
	l4.4,2.7l3.1-2.2l2.7,1.6l3-1.6l2.6,1.4l3-1.9l3.6,2.4l4.2-2.4l4.1,2.3v3.9h2.6v-1.9h2.2l0.1,1.1l4.9,0.1V86.8h4.8l1.2-2.4h4.9
	l2.4,1.6h2.9l0.9,1.9l0.1,3.4l-1.1,1.1v4.1l-1.2,1.1v6h4.2v3.7h4.6V106h2.9v-1.4h2.6v-3h4.1v2.1l1.8-0.8l0.1-2.1h4.6v-6.3h9.9
	l0.6-1.1h3.1l1,1.4h1.8v-13h3.5v-2.2h9.5v1.9h1.5V66.9h5.6v-3.4h4.8l0.5-1.2l4.9,1.1l2.7-0.3v-1.8h26.6l5.9,1.2v8.6l2.6,0.3v6h6
	v-8.9h27.7v9.9l4.1,0.7v-0.8h2l0.8,0.8h2l1.2-2.1l6.8-1.9h5.9l4,0.4V77h7.6v-2.4h4.2v-2.3h5v2.3h5l-1.2,1.8v8.1h4.9v-5.1h4.2
	l6.1,5.9h2l2.9,2.2h3.1v-1.5h3.1v-3h3.7v1.5h2.3v-1.5h4.4v1.6h1.1v-0.9h3.1v2.6h3.3v3h2.9l0.5,2.1h4.2l0.1-1.8h3.3V54.6h2.6v-3.8
	h13.5l1.9,1.2v-4h1.1v4.8h3.4v17.7l4.5-4.8h9.4l2.3,2.9l2.5,2.9v6.7h7.4v21.3h1.5v-1.4h2.9v-9.4h9.5v-6.1h5.3v-2.9h2l0.3-3.8
	l1.1,3.6h1.9v2.4h4v-1.4h4.1v-1.1h2.3v-8.3h11.7h9v24.1h3.7v4.4h3l1.4-1.4h3.5V84.3l1-0.7v-3.4l2.5-0.9v-1.8h2.6v-2.6l4.1,1.5h5.9
	v3.3h1.4v7.5h9.1V74.8h3.8v-1.5h10.9V62.7h7.1v-2.7l2.7-2V56l4.8-4.4v-2.3h3.1v2.2l4.4,4.4v1.4h5.2v10.9h6.7V41.9h12.8l3,2.3V61h1.9
	v21.1h3.8v-8.5h23.9l1.8,2.4l-0.5,5.1v28.1h2.2v2.1h3.7v3.9h3.5v-2.1h1.6V91.2c0,0,4-1.9,10.1-1.9s10.8,1.9,10.8,1.9v22h2.7v-2.3
	h9.4v2.7h8v4.8h1.2v-2.7h2.9v-10.8l3.1-7.5l3.5,6.9v14.6l1.6,1.6v5.9c0,0-0.1,1.2,0.8-0.1c0.8-1.4,2.3-0.9,2.7-0.4
	c0.4,0.6,0.4,0.6,0.4,0.6c0.7-0.4,1.8-0.6,1.8-0.6v-2.1v-2.4h6.7v1.9h3.7c0.5-1.9,3.7-1.2,3.7-1.2c0.7-1.8,4.8-3,6.7-1.2
	c1.2-0.9,4.1-1.4,5.2,0h10.8v-4.5l1.4-1.2h2.5v-3.1h6.8v3.1h2.7v3.4h3v1.5c1.1-0.7,3-0.8,3.4-0.7c0.8-1.6,3.1-1.1,4-0.6v-2.2
	c0,0,3-1.5,4.4,0.8c1.8-0.8,3.9,0.1,4.7,2.4c0.9-1.5,2.7-1.1,3.6,0c0.8-0.9,1.2-1.5,1.2-1.5v-1.8h2.2v1.7c1.6-0.1,3,1.2,3,1.2
	c1.6-1.7,5.7-1.5,7.7,3.2v-1.7h3.5c-0.3-1.9,0.4-3.4,1.3-3s1.3,3,1.3,3c0.1-1.5,0.9-2.4,1.8-2.4s2.5,0.7,2.5,2.5h2.2
	c0.9-1.8,2.8-3.9,3.8-1.4v-2.5h2.9v2.4l1.1,1.4h2.8c-0.1-2.2,1-3.2,2.4-2.4c2.3-0.6,4.3,2.5,4,2.2c1.7-1.7,4.5-1.7,6.4-0.1v-1.4h3.5
	v1.2h5.3c0.4-1.6,3.8-0.3,4.1,0.5c0.7-1.3,0.9-1.7,2.2-1v-5.1h3.6v-2.5h2.7v1.9h3v5.9c2.4-1.7,3.6,0.1,3.6,0.1
	c1.7-1.2,2.7-1.2,3.7-0.5c1.8-0.5,4-0.8,4.3,1.4c2.1-0.7,6.8-0.5,6.8-0.5c1.3-1.6,5.2-2.7,6.5,0.2h6.1c1.7-1.8,5.4-3,7.3-0.3
	c0,0,1.8-0.9,2.3,1.5c1.7-1.1,4.2-1.2,5.3-0.1c1.8-2.3,6.5-0.8,6.5-0.8v25.5H-2.7V104.9z"/>
<polyline class="st1" points="782,117.9 786.5,117.9 786.5,125.2 798.2,146.5 "/>
<polyline class="st1" points="783.2,117.9 783.2,124.8 772.9,146.5 "/>
<ellipse class="st2" cx="786" cy="122.2" rx="12.9" ry="20.6"/>
<rect x="95.8" y="101.1" class="st0" width="20.7" height="2.8"/>
<path class="st0" d="M99.4,108.1c0,0,4.6-46,4.6-49.4s-1.5-23.1-2.2-28.3l1-0.5l2.5,16l1.5-15.7l2.2-0.2l0.5,14.2l3.4-14h1
	c0,0-2.9,18.2-3.2,22.3s4.2,57.8,4.2,57.8h-1.7l-2.2-23.6h-4.8l-2.1,21.7L99.4,108.1z"/>
<polygon class="st0" points="106.4,84.7 110.4,84.7 108.2,62.6 "/>
<polygon class="st0" points="108.3,61 107.3,101.3 103.1,101.3 106.8,60.7 "/>
<polygon class="st0" points="97.3,30.1 100.1,30.7 116,30.7 117.8,29.8 117.8,27.8 97.2,27.8 "/>
<polygon class="st3" points="97.1,26.8 98.6,24.6 116.4,24.6 117.9,26.9 "/>
<polygon class="st0" points="94.1,26.6 97.2,27.8 117.8,27.8 121.5,26.6 "/>
<polygon class="st0" points="97.4,24.7 118.9,24.7 112,21.5 104.7,21.5 "/>
<polygon class="st0" points="103.1,19.9 104.7,21.5 112,21.5 113.2,19.9 "/>
<polygon class="st0" points="104.8,20 104.8,18.6 111.8,18.6 111.8,20.1 "/>
<polygon class="st0" points="108.6,8 107.6,19 109.5,19 "/>
<rect x="164.5" y="124.4" class="st3" width="5" height="2.2"/>
<polygon class="st3" points="171.3,124.6 176.9,124.6 176.8,126.8 171.3,126.6 "/>
<rect x="278.9" y="73.7" class="st3" width="11.1" height="0.4"/>
<rect x="278.7" y="78.3" class="st3" width="11.6" height="0.4"/>
<rect x="289.9" y="75.4" class="st3" width="9.9" height="0.7"/>
<rect x="362.7" y="111.8" class="st3" width="12.6" height="1.3"/>
<rect x="381" y="114.8" class="st3" width="8.6" height="1.3"/>
<rect x="403.2" y="78.1" class="st3" width="1.9" height="1"/>
<rect x="400.9" y="81.6" class="st3" width="1.9" height="1"/>
<rect x="401" y="83.3" class="st3" width="1.9" height="1"/>
<polygon class="st3" points="495.7,80.3 501.1,80.4 501.2,81.9 495.5,81.8 "/>
<polygon class="st3" points="495.8,87.6 506.8,87.6 506.8,89.2 495.4,88.9 "/>
<polygon class="st3" points="471.9,94.5 476.5,94.5 476.4,95.2 471.9,95.2 "/>
<polygon class="st3" points="476.8,98.2 480.6,98.2 480.6,98.8 476.8,98.9 "/>
<polygon class="st3" points="473.5,99.8 477.1,99.7 477.1,100.4 473.5,100.4 "/>
<rect x="689" y="76.1" class="st3" width="10.8" height="0.8"/>
<rect x="686.1" y="79.8" class="st3" width="9.1" height="0.8"/>
<rect x="691.5" y="88.1" class="st3" width="7.4" height="0.6"/>
<polyline class="st3" points="653.2,82 647,81.8 647,79.6 653.4,80.3 "/>
<polygon class="st3" points="649.4,88.1 652.7,88.1 652.7,90 649.6,89.8 "/>
<rect x="590.3" y="97.4" class="st3" width="4.2" height="1.5"/>
<rect x="592.8" y="102.2" class="st3" width="3.8" height="1.5"/>
<g>
	<g>
		<path class="st4" d="M-2.7,104.9c0.1,0,0.2,0,0.2,0"/>
		<path class="st5" d="M2.5,104.3c51.9-6.9,82.7-48.3,93.6-74"/>
		<path class="st4" d="M97.1,28c0-0.1,0.1-0.1,0.1-0.2c0.1,0.1,0.1,0.1,0.2,0.2"/>
		<path class="st6" d="M101.5,31.6c5.1,2.9,10.8,1.9,14.4-1.5"/>
		<path class="st4" d="M117.7,28c0-0.1,0.1-0.1,0.1-0.2c0,0.1,0.1,0.1,0.1,0.2"/>
		<path class="st7" d="M120.6,32.1c11.8,17.7,39.2,50.5,80.1,54.5"/>
		<path class="st4" d="M203.1,86.8c0.1,0,0.2,0,0.2,0c0.1,0.1,0.1,0.1,0.1,0.2"/>
		<path class="st8" d="M206.8,90c3.9,2.3,9.1,1.9,12.1-0.3"/>
		<path class="st4" d="M220.4,88.1c0-0.1,0.1-0.1,0.1-0.2c0.1,0,0.2,0,0.2,0"/>
		<path class="st9" d="M225.6,87.9c14.4-1.2,37.8-10.9,46.8-19.1"/>
		<path class="st4" d="M274.1,67.1c0-0.1,0.1-0.1,0.2-0.2c0.1,0,0.1,0.1,0.2,0.1"/>
		<path class="st10" d="M278.9,68.8c13.4,3.9,37.3,0.7,44.5-4.4"/>
		<path class="st4" d="M325.1,62.7c0-0.1,0.1-0.1,0.1-0.2c0,0.1,0.1,0.1,0.2,0.2"/>
		<path class="st11" d="M328.8,66.8c1.3,1.3,1.8,0.9,5,1.7c5.8,6,17.3,6.6,25.3,1.7"/>
		<path class="st4" d="M361.3,68.7c0.1-0.1,0.1-0.1,0.2-0.2c0.1,0,0.1,0.1,0.2,0.1"/>
		<path class="st12" d="M366.5,70.1c19.8,4.3,76.1,2.5,98.5-17.4"/>
		<path class="st4" d="M466.9,51c0.1-0.1,0.1-0.1,0.2-0.2c0,0.1,0.1,0.1,0.1,0.2"/>
		<path class="st13" d="M470.9,54.9c4.6,3.2,10.9,3,14.3,0.2"/>
		<path class="st4" d="M486.8,53.1c0-0.1,0.1-0.2,0.1-0.2c0,0.1,0.1,0.1,0.1,0.2"/>
		<path class="st14" d="M490.1,57.1c9.5,10.3,31.6,20.9,55,14.8"/>
		<path class="st4" d="M547.7,71.2c0.1,0,0.2-0.1,0.2-0.1c0.1,0.1,0.1,0.1,0.2,0.2"/>
		<path class="st15" d="M552.4,74.3c5.1,2.5,9.8,1.3,13.9-1.4"/>
		<path class="st4" d="M568.4,71.3c0.1-0.1,0.1-0.1,0.2-0.2c0.1,0,0.2,0,0.2,0.1"/>
		<path class="st16" d="M573.7,71.8c15.3,1.3,47.9-1.8,63.6-18.3"/>
		<path class="st4" d="M639,51.7c0-0.1,0.1-0.1,0.2-0.2c0.1,0,0.2,0.1,0.2,0.1"/>
		<path class="st17" d="M644.2,52.6c4.9,0.1,8.3-2.9,10.3-8"/>
		<path class="st4" d="M655.3,42.2c0-0.1,0-0.2,0.1-0.2c0.1,0,0.1,0.1,0.2,0.1"/>
		<path class="st18" d="M660.2,44.8c3.3,1.8,6,2.7,8.7,1.3"/>
		<path class="st4" d="M671,44.4c0.1-0.1,0.1-0.1,0.2-0.2c0,0.1,0.1,0.1,0.1,0.2"/>
		<path class="st19" d="M673.8,48.9c5.3,9.6,13.2,23.3,23.3,27.2"/>
		<path class="st4" d="M699.5,76.8c0.1,0,0.2,0,0.2,0.1c0,0.1,0.1,0.1,0.1,0.2"/>
		<path class="st20" d="M702.4,81.2c4.2,6.3,6.9,8.5,10.6,9.9c6.9,4.6,14.1,4.6,18.8,1.7"/>
		<path class="st4" d="M733.7,91.3c0.1-0.1,0.1-0.1,0.2-0.2c0.1,0.1,0.1,0.1,0.2,0.2"/>
		<path class="st21" d="M738.6,94.2c6,3.4,13.6,5.9,20,4.2"/>
		<path class="st4" d="M761.1,97.4c0.1,0,0.2-0.1,0.2-0.1c0.1,0,0.1,0.1,0.2,0.1"/>
		<path class="st22" d="M765.7,99.8c11,5.9,31.5,14.5,48,13.7"/>
		<path class="st4" d="M816.1,113.3c0.1,0,0.2,0,0.2,0c0.1,0.1,0.1,0.1,0.2,0.2"/>
		<path class="st23" d="M820.8,116.3c21.4,11.7,71.3,10.1,90.7-0.2"/>
		<path class="st4" d="M913.8,114.8c0.1-0.1,0.1-0.1,0.2-0.1c0.1,0,0.2,0.1,0.2,0.1"/>
		<path class="st24" d="M918.8,116.2c14.3,4,37.6,6.1,50.7,5"/>
		<path class="st4" d="M971.9,121c0.1,0,0.2,0,0.2,0"/>
	</g>
</g>
<g>
	<g>
		<g class="st25">
			<g>
				<g>
					<defs>
						<rect id="SVGID_1_" x="743.3" y="64.9" width="75.1" height="114.5"/>
					</defs>
					<clipPath id="SVGID_00000176008216440237538950000010415773672913739932_">
						<use xlink:href="#SVGID_1_"  style="overflow:visible;"/>
					</clipPath>
					<g style="clip-path:url(#SVGID_00000176008216440237538950000010415773672913739932_);">
						<g>
							<g>
								<g>
									<g>
										<g>
											<g>
												<defs>
													<polyline id="SVGID_00000033352535453116299390000008267681397508607669_" points="818.2,65.2 743.4,65.2 743.4,179.2 
														818.2,179.2 818.2,65.2 													"/>
												</defs>
												<clipPath id="SVGID_00000044147346055470429170000016293470589781457570_">
													<use xlink:href="#SVGID_00000033352535453116299390000008267681397508607669_"  style="overflow:visible;"/>
												</clipPath>
												<g style="clip-path:url(#SVGID_00000044147346055470429170000016293470589781457570_);">
													<g>
														<g>
															<defs>
																<polyline id="SVGID_00000109717427312264186990000002105976931912382340_" points="818.4,179.4 743.3,179.4 
																	743.3,64.9 818.4,64.9 818.4,179.4 																"/>
															</defs>
															<clipPath id="SVGID_00000080915959885724545830000006813701005864005310_">
																<use xlink:href="#SVGID_00000109717427312264186990000002105976931912382340_"  style="overflow:visible;"/>
															</clipPath>
															<g style="clip-path:url(#SVGID_00000080915959885724545830000006813701005864005310_);">
																
																	<image style="overflow:visible;enable-background:new    ;" width="321" height="486" xlink:href="5B614C49728AD1A3.png"  transform="matrix(0.234 0 0 0.234 743.2833 65.2887)">
																</image>
															</g>
														</g>
													</g>
												</g>
											</g>
										</g>
									</g>
								</g>
							</g>
						</g>
					</g>
				</g>
			</g>
		</g>
	</g>
</g>
<g>
	<g>
		<g class="st25">
			<g>
				<g>
					<defs>
						<rect id="SVGID_00000050627014289388005150000014396146170530236803_" x="747.6" y="64.9" width="75.1" height="114.5"/>
					</defs>
					<clipPath id="SVGID_00000172422175040806621820000010370846037213417909_">
						<use xlink:href="#SVGID_00000050627014289388005150000014396146170530236803_"  style="overflow:visible;"/>
					</clipPath>
					<g style="clip-path:url(#SVGID_00000172422175040806621820000010370846037213417909_);">
						<g>
							<g>
								<g>
									<g>
										<g>
											<g>
												<defs>
													<polyline id="SVGID_00000115477622429136094400000008292833461833106560_" points="822.5,65.2 747.8,65.2 747.8,179.2 
														822.5,179.2 822.5,65.2 													"/>
												</defs>
												<clipPath id="SVGID_00000164512435044268239280000002416672364485501111_">
													<use xlink:href="#SVGID_00000115477622429136094400000008292833461833106560_"  style="overflow:visible;"/>
												</clipPath>
												<g style="clip-path:url(#SVGID_00000164512435044268239280000002416672364485501111_);">
													<g>
														<g>
															<defs>
																<polyline id="SVGID_00000000923092734557269600000009036940675137987501_" points="822.7,179.4 747.6,179.4 
																	747.6,64.9 822.7,64.9 822.7,179.4 																"/>
															</defs>
															<clipPath id="SVGID_00000075131301860591305620000004027100650018992794_">
																<use xlink:href="#SVGID_00000000923092734557269600000009036940675137987501_"  style="overflow:visible;"/>
															</clipPath>
															<g style="clip-path:url(#SVGID_00000075131301860591305620000004027100650018992794_);">
																
																	<image style="overflow:visible;enable-background:new    ;" width="321" height="486" xlink:href="5B614C49728AD1A6.png"  transform="matrix(0.234 0 0 0.234 747.6033 65.2887)">
																</image>
															</g>
														</g>
													</g>
												</g>
											</g>
										</g>
									</g>
								</g>
							</g>
						</g>
					</g>
				</g>
			</g>
		</g>
	</g>
</g>
<ellipse class="st2" cx="781.1" cy="122.2" rx="12.9" ry="20.6"/>
<polyline class="st1" points="789.5,146.5 781.9,125.2 781.8,117.4 "/>
<polyline class="st1" points="768.2,146.5 778.5,124.8 778.5,117.9 782,117.9 "/>
<linearGradient id="SVGID_00000162351646690902036650000011241349738914033319_" gradientUnits="userSpaceOnUse" x1="487.06" y1="-507.8751" x2="487.06" y2="-493.085" gradientTransform="matrix(1 0 0 -1 0 -348)">
	<stop  offset="0" style="stop-color:#413568"/>
	<stop  offset="1" style="stop-color:#13142A"/>
</linearGradient>
<rect x="-4.9" y="144.5" style="fill:url(#SVGID_00000162351646690902036650000011241349738914033319_);" width="984" height="15.7"/>
</svg>
