<?xml version="1.0" encoding="utf-8"?>
<!-- Generator: Adobe Illustrator 19.2.1, SVG Export Plug-In . SVG Version: 6.00 Build 0)  -->
<svg version="1.1" id="Layer_1" xmlns="http://www.w3.org/2000/svg" xmlns:xlink="http://www.w3.org/1999/xlink" x="0px" y="0px"
	 viewBox="0 0 929.2 89.4" style="enable-background:new 0 0 929.2 89.4;" xml:space="preserve">
<style type="text/css">
	.st0{fill:url(#SVGID_1_);}
	.st1{fill:url(#SVGID_2_);}
</style>
<g>
	
		<radialGradient id="SVGID_1_" cx="465.5333" cy="190.5116" r="326.8778" gradientTransform="matrix(1 0 0 1.198 0 -167.3498)" gradientUnits="userSpaceOnUse">
		<stop  offset="0" style="stop-color:#366C21"/>
		<stop  offset="0.5997" style="stop-color:#214313"/>
		<stop  offset="1" style="stop-color:#152C0B"/>
	</radialGradient>
	<path class="st0" d="M837,93.2l-4,25.9H22.5L5.8,90.5C17.3,59.4,73.7,72.3,53.4,93C32.8,76.2,63.8,53.7,72.3,70.2
		c-13.5-22,32.5-37.3,24-13.9c-5.1-15.1,29.2-0.7,15.5,15.5c-3.4-5.5,19.1-12.1,25.7,8.9c-9.7-9.2,11.1-15.6,12.7-7.3
		c-11.8-19.3,39.6-15.8,33.1,7.8c-20.1-27.6,15.9-16,5.8-41.6c13.7,7.6,20.6,3,22.6,13c6.8-11,23.3-13.1,25,0.6
		c11.6-6.9,24-3.8,28,4.2c0.2,0.3,0.3,0.7,0.5,1c1.8,4.7-11.8,4.1,5.7-6.1c10.1-2.8,15.8,7.8,25.9,13.3c-2.2-5.4,0,0-0.6,4.2
		c-1.8-13.5,10.4-24.2,25.4-14.5c-3.4-9.6,2.1-11.3,12.2-14.1c0,0,1.7,5.5,1.7,6.9c-1.7-12.4,8.4-12.6,20.3-4.4
		c-13.5-16.5,15.2-41.3,16.9-16.5c1.7-1.4,3.4-4.1,5.1-5.5c1.7,0,5.1,4.1,3.4,4.1c0,0,0-2.8,1.7-4.1c11.8,2.8,22,11,18.6,20.7
		c-3.4-16.5,16.9-19.3,23.7-1.4c1.7-4.1,5.1-6.9,6.8-9.6c1.7,2.8,6.6,6.8,8.3,12.3c3-1.8,24.2-4.4,30.6,0.3
		c-3.4,2.8-3.4,4.1-6.8,5.5c-10.1-11-3.6-9.9,6.5-19.6c1.7,2.8,5.1,5.5,5.1,8.3c-6.8-8.3-11.8-20,3.4-24.2c1.7,2.8,5.1,5.5,5.1,8.3
		c3.4-13.8,10.8-12.7,24.3-19.6c3.4,6.9,5.1,11,3.4,17.9l1.7-13.1c5.1,6.9,10.1,11.7,8.4,21.3c18.6-11,43.3-9.3,34.8,5.8
		c8.4-9.6,22-13.1,25.3-2c1.7-1.4,5.1-2.8,6.8-4.1c3.4,11,8.4,11.5-5.1,17c-1.7,1.4,6.8-4.1,6.8-4.1c1.7,0-1.7,4.1,0,4.1
		c16.9-16.5,47.5-9.8,30.6,2.6c1.7-5.5,6.8-20.7,16.9-16.5c8.4,5.5,6.8,23.4,3.4,28.9c-10.1-8.3,1.7-24.8,22-22
		c-5.2-7.3,4.2-9.7,12-12.3c5.9-4.5,16.3-16.4,17,0.4c0.5-2.4,4.5-9.8,15,6.4C697,11.7,731.1,20.5,732.8,4c13,0.6,24,7.1,16.4,14.5
		c13.5-15.1,22,5.5,16.9,13.8c1.7-1.4,5.1-4.1,6.8-6.9c3.9,15.7,23.9,1.7,22.4,17.9c6.8-12.4,22.2-7.3,20.5,6.4
		c6.5-12.9,23.1-5.6,26.6,5.3c5.4-5.7,11.6-4.1,13.7,4.2c6.2-0.7,10.1,1.4,10.1,9.2c2.8-9.4,29.9,0.7,29,8.4
		c4.2-5.8,24.4,0.4,30,11.5C930,97.9,837,93.2,837,93.2z"/>
</g>
<g>
	<g>
		<linearGradient id="SVGID_2_" gradientUnits="userSpaceOnUse" x1="4.8526" y1="54.0792" x2="925.8265" y2="54.0792">
			<stop  offset="0" style="stop-color:#37651B"/>
			<stop  offset="0.3045" style="stop-color:#37651B"/>
			<stop  offset="0.4263" style="stop-color:#6D953C"/>
			<stop  offset="0.5927" style="stop-color:#B2D466"/>
			<stop  offset="0.6164" style="stop-color:#A2C55C"/>
			<stop  offset="0.7142" style="stop-color:#638B35"/>
			<stop  offset="0.7857" style="stop-color:#3C671D"/>
			<stop  offset="0.8229" style="stop-color:#2D5914"/>
			<stop  offset="0.9698" style="stop-color:#2D5914"/>
		</linearGradient>
		<path class="st1" d="M837.8,96.9c-1.3,1.4-2.5,2.8-3.8,4.2c-0.9,1-2.6,2.1-0.7,1.7c-0.2,0-0.5,0-0.7,0c-1.3,0-2.6,0-3.9,0
			c-5.7,0-11.5,0-17.2,0c-22.3,0-44.6,0-66.9,0c-33.4,0-66.8,0-100.1,0c-40.4,0-80.8,0-121.2,0c-43.2,0-86.4,0-129.6,0
			c-42.3,0-84.6,0-126.9,0c-37.2,0-74.4,0-111.6,0c-27.9,0-55.9,0-83.8,0c-14.8,0-29.7,0-44.5,0c-1.1,0-2.4,0.2-3.5,0
			c-0.1,0-0.3,0-0.5,0c0.6,0.2-1.9-1.4-2.4-1.7c-2.1-1.4-4.3-2.8-6.4-4.2c-1.9-1.2-3.8-2.5-5.6-3.7c-2.1-1.4-1.8-1.1-0.6-3.4
			c2.8-5.2,6.7-9.2,12-11.8c8.7-4.3,20.3-4.9,29.2-0.7c8.1,3.8,9.7,11,3.5,17.5c0.6-0.1,1.1-0.1,1.7-0.2c-6.9-5.9-9.4-14.8-2.8-22
			c5.5-6,15.3-8.1,19.9,0c0.6-0.3,1.2-0.5,1.8-0.8c-5.4-9.3-0.2-18.7,9-22.8c3.3-1.5,8.2-2.9,11.6-0.9c3.7,2.2,2.8,6.8,1.7,10.3
			c0.6-0.1,1.3-0.2,1.9-0.4c-2.5-8.3,7-5,10.9-2.2c6.1,4.5,7.8,11.5,2.9,17.7c0.6,0,1.2,0,1.8,0c-2.3-4.5,7.4-4.8,9.6-4.4
			c7.3,1.2,11.8,7.1,14.1,13.8c0.6-0.2,1.2-0.4,1.9-0.7c-8.1-8.4,8.8-14.1,10.9-6.6c0.6-0.2,1.2-0.4,1.9-0.7
			c-6.3-10.7,7.9-12.3,15.3-10.8c9.4,1.9,18.5,8.5,15.9,19.1c0.6-0.2,1.2-0.3,1.9-0.5c-2.8-4-7.2-9.8-5.9-15.1
			c0.9-3.4,4.2-5.3,6.9-7.2c6.9-5.1,7.9-11.2,4.9-19.2c-0.6,0.3-1.2,0.5-1.7,0.8c4.5,2.4,9.1,3.9,14.1,5.2c4.6,1.2,7.2,2.7,8.3,7.5
			c0.2,0.8,1.6,0.2,1.9-0.2c5.8-8.9,20.9-12.9,23.1,0.8c0.1,0.5,1.1,0.4,1.4,0.2c8.5-4.7,20.7-5.8,26.5,3.6c0.3,0.5,1.2,0.2,1.5,0
			c1.8-1.1,3.1-2.7,4.9-3.7c4.2-2.3,8.4-0.4,11.9,2c4.9,3.3,8.9,7.6,14,10.5c0.4,0.2,2,0,1.7-0.8c-0.2-0.6-0.6-1.8-1.1-2.4
			c-0.5-0.5-1.9-0.1-1.9,0.7c0.2,2.1,0.5,4.1,0.4,6.3c0.6-0.1,1.3-0.2,1.9-0.4c-0.5-5.3,0.7-10.8,4.9-14.4c5.7-4.9,13-2.8,18.8,0.7
			c0.4,0.3,2,0,1.7-0.8c-1.1-3.3-1.8-6.8,1.1-9.3c2.7-2.3,6.9-3,10.2-3.9c-0.4-0.1-0.7-0.2-1.1-0.3c0.7,2.2,1.5,4.5,1.7,6.9
			c0.6-0.2,1.3-0.3,1.9-0.5c-0.6-5.3,1-10,7.5-8.9c4,0.7,7.7,3,11.1,5.3c0.5,0.3,2.2-0.2,1.7-0.9c-5.1-6.6-4.3-15.5,1.2-21.7
			c2.2-2.5,6-5.5,9.5-3.9c3.4,1.6,4,6.4,4.3,9.7c0.1,0.7,1.5,0.2,1.8,0c0.8-0.8,3.1-4.4,4.1-4.5c1.2-0.2,2.9,2.6,3.2,2.5
			c0.5,0.1,0.9,0.3,1.4,0.4c0.3-6.5,10.8,0.7,13.3,2.8c4.3,3.6,6.6,8.3,5,13.9c0.6-0.1,1.3-0.2,1.9-0.4c-1-5.9,1-13.1,8.3-12.7
			c6.6,0.3,11.1,6.3,13.4,11.9c0.3,0.7,1.6,0.4,1.9-0.2c1.7-3.6,4.5-6.4,6.8-9.6c-0.6,0.1-1.2,0.2-1.8,0.3c2.8,3.9,6.6,6.1,8.4,10.9
			c0.2,0.4,0.8,0.4,1.1,0.3c3.8-1,7.8-1.9,11.7-2.2c2.8-0.2,17.2-0.2,16.5,4.1c-0.1,0.5-1.8,1.9-2.1,2.2c-2.1,1.3-2.6,0.8-4-0.5
			c-1.7-1.7-3.4-4.5-2.2-6.9c0.9-1.8,3.3-3.1,4.8-4.3c2.1-1.6,4.2-3.3,6.1-5.1c-0.6,0.1-1.1,0.1-1.7,0.2c1.8,2.6,4.5,4.9,5,8.1
			c0.6-0.2,1.2-0.4,1.9-0.7c-3.1-3.9-6.5-8.7-6.4-13.9c0-3.5,2-6.5,5.2-7.9c4-1.7,7.2,2.7,7.8,6.5c0.1,0.8,1.8,0.2,1.9-0.4
			c2.1-8,6.5-11.6,13.9-14.7c1.5-0.6,3.1-1.2,4.6-1.9c1.8-0.8,3.2-2,4.8-1c0.7,0.4,2.2,2.8,2.6,3.6c0.8,1.8,0.3,3.4-0.1,5.3
			c-0.2,0.9,1.7,0.5,2-0.2c0.6-2,1.1-3.9,1.7-5.9c-0.6,0.2-1.2,0.3-1.9,0.5c5,6.7,9.6,12.2,8.4,21c-0.1,0.8,1.3,0.5,1.6,0.3
			c7.5-4.3,16.7-7.5,25.5-6.7c7.3,0.7,11.4,5.1,7.8,12.1c-0.5,0.9,1.3,0.7,1.7,0.3c5.9-6.4,19.3-14.1,23.6-2
			c0.2,0.6,1.2,0.4,1.6,0.1c2.2-1.5,4.6-2.6,6.8-4.1c-0.5,0-1.1-0.1-1.6-0.1c0.9,2.9,3.9,7.1,3.8,10.2c-0.2,4.2-6.4,4.2-8.9,6.5
			c-0.1,0.1-0.2,0.3-0.2,0.5c0,0,0,0,0,0c0.1,0.5,1.1,0.4,1.4,0.2c2.3-1,4.3-3.4,6.6-4.1c1.2-0.4-0.5,0.3-0.9,1
			c-0.2,0.3-0.6,1.3-0.6,1.7c0.1,0.8-0.1,1,0.8,1.3c0.4,0.2,1-0.1,1.4-0.4c6.7-6.3,16.2-10.2,25.5-9.3c2.5,0.2,6.1,0.8,7.6,3.1
			c2.2,3.2-1.5,6.4-3.9,8.2c0.5,0.1,1.1,0.2,1.6,0.3c2-6.4,10.3-24.9,18.2-12.8c4.3,6.6,4.1,18.4,0.2,25.2c0.6-0.1,1.2-0.2,1.8-0.3
			c-5.6-5-3.8-12.1,1.6-16.5c3.6-3,8.3-4.4,12.9-4.7c2.6-0.2,5,0.8,6-1.3c0.5-1.2,0.4-2.8,0.9-4c1.6-3.8,5.1-3.4,8.5-4.7
			c2.3-0.9,4.1-2.2,5.9-3.8c2.6-2.3,5.1-6.1,8.8-6.2c4.8-0.1,5.6,3.9,4.5,7.8c-0.3,0.9,1.6,0.3,1.9,0c1.4-1.9,4.4-3.2,6.4-1.9
			c1.2,0.8,2.2,2.1,3.2,3.2c1.4,1.7,2.5,3.6,3.7,5.4c0.4,0.6,2.2,0,1.9-0.7c-1.8-3.9-3.1-8.6,0.4-11.9c2.9-2.7,7.6-3.6,11.3-4.9
			c6.2-2.1,13-4.8,13.9-12c-0.4,0.2-0.9,0.5-1.3,0.7c6,0.4,24.6,4.3,16,13.7c-0.8,0.9,1.1,1,1.6,0.4c2.7-2.9,6.7-6.4,10.9-4.3
			c2,1,3.4,3.1,4.3,5.1c1.8,3.9,2.1,8.8,0,12.7c-0.5,0.8,1.2,0.7,1.5,0.4c2.6-2.2,5.1-4.4,7.1-7.2c-0.6,0.1-1.3,0.1-1.9,0.2
			c1.5,5.2,4.9,7.8,10.1,8.7c6.5,1.1,12.8,0.3,12.3,9c-0.1,0.9,1.6,0.4,1.9,0c6.7-11.2,19.6-5.6,18.6,6.5c-0.1,0.9,1.6,0.5,1.9,0
			c6.5-11.7,21-4.7,24.7,5.5c0.3,0.7,1.4,0.3,1.8,0c5.8-5.6,10.2-1.7,12,4.2c0.1,0.3,0.6,0.4,0.9,0.4c6.3-0.6,9,2.8,9.2,8.7
			c0,0.9,1.7,0.6,1.9,0c3.1-8.3,27.4,0.1,27.1,8.5c0,0.8,1.4,0.5,1.8,0.1c4-4.7,14-0.4,18.3,1.8c2.1,1.1,11.2,6.6,9.8,9.9
			c-0.7,1.6-4.3,2.1-5.7,2.5c-3.5,0.8-7,1.2-10.6,1.6c-18.2,1.9-36.6,2-54.9,1.9c-4.6,0-9.2,0-13.8-0.1c-0.8,0-2,1.2-0.7,1.3
			c16.4,0.3,32.7,0.2,49.1-0.5c4-0.2,40.7-0.2,38.4-8.3c-1.8-6.4-12.2-10.8-17.9-12.2c-4.2-1.1-10.4-1.9-13.6,1.8
			c0.6,0,1.2,0.1,1.8,0.1c0.3-6.4-10-10.2-14.9-11.6c-4.7-1.4-13.7-2.9-15.9,3.2c0.6,0,1.3,0,1.9,0c-0.1-3.1-0.5-6.6-3.3-8.5
			c-1.2-0.8-2.6-1.2-4-1.3c-2.5-0.3-2.4,0-3.8-2.4c-3.7-6.3-9.4-6.1-14.5-1.3c0.6,0,1.2,0,1.8,0c-4.4-12-21.4-17.9-28.5-5.1
			c0.6,0,1.3,0,1.9,0c1.3-14.8-15.3-18.4-22.4-6.4c0.6,0,1.3,0,1.9,0c0.3-5.2-1.5-8.4-6.8-9.3c-6.9-1.2-13.3-0.7-15.6-8.8
			c-0.2-0.8-1.6-0.2-1.9,0.2c-1.8,2.6-4.1,4.6-6.5,6.6c0.5,0.1,1,0.3,1.5,0.4c2.9-5.3,1.7-13.5-2.9-17.7c-5.3-4.8-11.7-0.7-15.7,3.6
			c0.5,0.1,1.1,0.3,1.6,0.4c9.5-10.3-9.8-14.9-16.9-15.4c-0.4,0-1.3,0.2-1.3,0.7c-2.1,15.8-35.2,8.1-25.7,29.1
			c0.6-0.2,1.2-0.4,1.9-0.7c-4-6.5-10.5-14.9-16.8-6.1c0.6,0,1.3,0,1.9,0c1.3-4.9-0.6-9.1-6.1-8.9c-6.9,0.2-9.6,7.8-15.5,10.1
			c-2.5,1-5.2,0.4-7.4,2.1c-1.7,1.3-2.6,3.5-3.2,5.6c-0.6,2.5,0.1,6.4,3,3.3c0.4-0.4,0-0.8-0.4-0.8c-8.2-0.9-17.4,0.6-23.2,6.9
			c-4.5,4.9-5.2,11.5,0,16.1c0.5,0.4,1.5,0.2,1.8-0.3c4.1-7.3,5.4-25.8-4.3-29.8C627.8,28.5,622.2,43,620,50
			c-0.2,0.8,1.3,0.5,1.6,0.3c3.3-2.5,7.8-7.1,3.4-10.8c-4.4-3.7-12.3-2.9-17.4-1.8c-3.9,0.8-7.7,2.2-11.1,4.2
			c-1.8,1-3.3,2.2-4.9,3.4c-2.3,1.8,0.7-0.2,0.3-1.7c-0.8-3.2-7.4,2.8-8.8,3.4c0.5,0.1,0.9,0.1,1.4,0.2c0.2,0.7,8.4-3.5,9-5.8
			c0.8-3.4-2.7-8.3-3.7-11.4c-0.2-0.6-1.2-0.4-1.6-0.1c-2.2,1.5-4.6,2.6-6.8,4.1c0.5,0,1.1,0.1,1.6,0.1c-4.8-13.5-20.6-5.1-27.1,2.1
			c0.6,0.1,1.1,0.2,1.7,0.3c3.5-6.8,0.6-12-6.8-13.3c-10-1.7-20.9,2.1-29.5,7c0.5,0.1,1.1,0.2,1.6,0.3c1.3-9-3.4-14.8-8.5-21.6
			c-0.4-0.6-1.7-0.1-1.9,0.5c-0.6,2-1.1,3.9-1.7,5.9c0.7-0.1,1.3-0.1,2-0.2c1.3-5.5-0.9-6.2-3.5-11c-0.2-0.4-1-0.2-1.3-0.1
			c-5.5,2.7-11.8,4.4-17,7.8c-4.4,2.9-6.6,7.3-7.9,12.3c0.6-0.1,1.3-0.2,1.9-0.4c-0.6-3.4-3.3-5.7-5.1-8.4c-0.2-0.3-0.8-0.3-1-0.2
			c-4.9,1.5-10.2,4.1-10.7,9.8c-0.6,5.6,3.3,11.2,6.6,15.3c0.4,0.5,2,0.1,1.9-0.7c-0.5-3.4-3.3-5.7-5.1-8.4
			c-0.4-0.5-1.3-0.1-1.7,0.2c-3,2.8-9.5,6-11.4,10c-1.7,3.8,2.5,7.7,4.7,10.2c0.3,0.3,0.9,0.3,1.3,0.1c2.9-1.4,4.7-3.7,7.1-5.8
			c0.2-0.2,0.2-0.6,0-0.7c-9.4-5.9-21.1-4.4-31.3-1.7c0.4,0.1,0.7,0.2,1.1,0.3c-1.8-4.8-5.7-7.2-8.5-11.2c-0.4-0.6-1.5-0.1-1.8,0.3
			c-2.2,3.3-5,6-6.8,9.6c0.6-0.1,1.3-0.1,1.9-0.2c-2.8-6.9-9-13.9-17.3-12.5c-7.2,1.2-9.4,7.9-8.3,14.4c0.1,0.8,1.8,0.2,1.9-0.4
			c3.4-11.8-9.5-18.7-19-21.1c-0.4-0.1-1.1,0-1.4,0.4c-1.2,1.4-1.8,2.6-1.9,4.5c0,0.7,1,0.5,1.4,0.4c0.1,0,0.3-0.1,0.4-0.1
			c0.2-0.1,0.5-0.3,0.6-0.6c0.3-1.7-2.3-4.2-3.9-4.4c-2.9-0.5-5,4.1-6.7,5.8c0.6,0,1.2,0,1.8,0c-0.4-4-1.4-9.2-5.8-10.6
			c-3.2-1-6.6,0.6-9,2.5c-7.9,6-10.1,17.3-3.9,25.3c0.6-0.3,1.1-0.6,1.7-0.9c-4.6-3.1-11.1-7.1-17-5.4c-4.8,1.4-5.5,6.2-5,10.6
			c0.1,0.8,2,0.3,1.9-0.5c-0.2-2.3-1-4.6-1.7-6.9c-0.1-0.4-0.8-0.4-1.1-0.3c-8.4,2.3-16.3,4.7-13,14.9c0.6-0.3,1.2-0.5,1.7-0.8
			c-5.9-3.6-13-5.5-19.4-1.9c-6.1,3.5-8.4,10.4-7.7,17.2c0.1,0.7,1.9,0.3,1.9-0.4c0.2-2.3-0.1-4.3-0.4-6.6c-0.6,0.2-1.2,0.4-1.9,0.7
			c0.4,0.7,0.7,1.4,0.9,2.1c0.6-0.3,1.2-0.5,1.7-0.8c-6.6-3.8-11.9-10.9-19.2-13.2c-2.3-0.7-5.3-1-7.6-0.1c-2.6,1-4.5,3.4-6.9,4.8
			c0.5,0,1,0,1.5,0c-6.3-10.2-19.9-8.9-29.1-3.8c0.5,0.1,0.9,0.1,1.4,0.2c-2.5-15.6-20.6-10.1-26.9-0.5c0.6-0.1,1.3-0.1,1.9-0.2
			c-0.8-3.5-2.3-5.9-5.7-7.2c-5.7-2.3-11.5-3.1-17.1-6c-0.4-0.2-2,0-1.7,0.8c1.7,4.5,3,9.8,0,14.1c-2.1,2.9-5.4,4.5-8.1,6.8
			c-7.3,6.2-2.1,14.5,2.4,20.9c0.4,0.6,1.7,0.1,1.9-0.5c3.2-12.7-9.7-19.7-20.6-20.6c-8.4-0.7-20.4,2.9-14.3,13.4
			c0.3,0.6,2.1,0.1,1.9-0.7c-2.6-9.3-24.2-1.8-14.6,8c0.4,0.4,2.1,0.1,1.9-0.7c-2.8-8.3-9.2-15-18.4-14.8c-2.7,0.1-11.5,1.8-9.2,6.4
			c0.3,0.6,1.4,0.4,1.8,0c6.3-7.9,2.4-17-6.2-21.1c-5.3-2.5-13.4-2.2-11.1,5.7c0.2,0.8,1.8,0.2,1.9-0.4c1.4-4,1.9-9.1-2.5-11.3
			c-3.7-1.8-8.5-0.8-12.1,0.6c-10.5,4.1-17.5,14.5-11.3,25.2c0.4,0.6,2.2,0,1.8-0.8c-4.6-8.2-14.7-6.9-21.2-1.6
			c-8.8,7.3-7.8,18.1,0.5,25.2c0.5,0.4,1.3,0.2,1.7-0.2c3.6-3.9,6.3-9.1,2.9-14c-3.2-4.6-9.6-6.6-14.8-7.5
			c-15-2.4-31.6,3.8-37.3,18.7c-0.1,0.2-0.1,0.4,0.2,0.6c2.8,1.8,5.6,3.7,8.4,5.5c2.4,1.6,5.6,4.7,8.4,5.5c0.6,0.2,1.2,0.1,1.8,0.1
			c3.8,0.2,7.7,0,11.6,0c17.9,0,35.9,0,53.8,0c28.8,0,57.5,0,86.3,0c36.3,0,72.7,0,109,0c40.2,0,80.4,0,120.7,0
			c40.8,0,81.7,0,122.5,0c38.2,0,76.4,0,114.6,0c31.9,0,63.7,0,95.6,0c22.3,0,44.6,0,66.8,0c6.5,0,13,0,19.5,0c2.6,0,5.9,0.5,8.4,0
			c2.9-0.6,5.1-4.5,7-6.7C840.2,96.5,838.3,96.3,837.8,96.9z"/>
	</g>
</g>
</svg>
